<mxfile host="app.diagrams.net" modified="2024-02-07T21:08:01.258Z" agent="Mozilla/5.0 (Macintosh; Intel Mac OS X 10_15_7) AppleWebKit/537.36 (KHTML, like Gecko) Chrome/120.0.0.0 Safari/537.36" etag="OFl1U_RMui6aMnPp2BXZ" version="23.1.1" type="device">
  <diagram name="Page-1" id="XZKD0pofdoPMeQ0Z4zYq">
    <mxGraphModel dx="3600" dy="1790" grid="1" gridSize="10" guides="1" tooltips="1" connect="1" arrows="1" fold="1" page="1" pageScale="1" pageWidth="980" pageHeight="690" math="0" shadow="0">
      <root>
        <mxCell id="0" />
        <mxCell id="1" parent="0" />
        <mxCell id="k6pDDL8mxmZS39vUdsQF-441" value="Stores" style="shape=table;startSize=30;container=1;collapsible=1;childLayout=tableLayout;fixedRows=1;rowLines=0;fontStyle=1;align=center;resizeLast=1;fontSize=18;" parent="1" vertex="1">
          <mxGeometry x="-320" y="-170" width="210" height="150" as="geometry" />
        </mxCell>
        <mxCell id="k6pDDL8mxmZS39vUdsQF-442" value="" style="shape=tableRow;horizontal=0;startSize=0;swimlaneHead=0;swimlaneBody=0;fillColor=none;collapsible=0;dropTarget=0;points=[[0,0.5],[1,0.5]];portConstraint=eastwest;strokeColor=inherit;top=0;left=0;right=0;bottom=1;fontSize=18;" parent="k6pDDL8mxmZS39vUdsQF-441" vertex="1">
          <mxGeometry y="30" width="210" height="30" as="geometry" />
        </mxCell>
        <mxCell id="k6pDDL8mxmZS39vUdsQF-443" value="PK" style="shape=partialRectangle;overflow=hidden;connectable=0;fillColor=none;strokeColor=inherit;top=0;left=0;bottom=0;right=0;fontStyle=1;fontSize=18;" parent="k6pDDL8mxmZS39vUdsQF-442" vertex="1">
          <mxGeometry width="30" height="30" as="geometry">
            <mxRectangle width="30" height="30" as="alternateBounds" />
          </mxGeometry>
        </mxCell>
        <mxCell id="k6pDDL8mxmZS39vUdsQF-444" value="StoreID INT " style="shape=partialRectangle;overflow=hidden;connectable=0;fillColor=none;align=left;strokeColor=inherit;top=0;left=0;bottom=0;right=0;spacingLeft=6;fontStyle=5;fontSize=18;" parent="k6pDDL8mxmZS39vUdsQF-442" vertex="1">
          <mxGeometry x="30" width="180" height="30" as="geometry">
            <mxRectangle width="180" height="30" as="alternateBounds" />
          </mxGeometry>
        </mxCell>
        <mxCell id="k6pDDL8mxmZS39vUdsQF-445" value="" style="shape=tableRow;horizontal=0;startSize=0;swimlaneHead=0;swimlaneBody=0;fillColor=none;collapsible=0;dropTarget=0;points=[[0,0.5],[1,0.5]];portConstraint=eastwest;strokeColor=inherit;top=0;left=0;right=0;bottom=0;fontSize=18;" parent="k6pDDL8mxmZS39vUdsQF-441" vertex="1">
          <mxGeometry y="60" width="210" height="30" as="geometry" />
        </mxCell>
        <mxCell id="k6pDDL8mxmZS39vUdsQF-446" value="" style="shape=partialRectangle;overflow=hidden;connectable=0;fillColor=none;strokeColor=inherit;top=0;left=0;bottom=0;right=0;fontSize=18;" parent="k6pDDL8mxmZS39vUdsQF-445" vertex="1">
          <mxGeometry width="30" height="30" as="geometry">
            <mxRectangle width="30" height="30" as="alternateBounds" />
          </mxGeometry>
        </mxCell>
        <mxCell id="k6pDDL8mxmZS39vUdsQF-447" value="StoreName " style="shape=partialRectangle;overflow=hidden;connectable=0;fillColor=none;align=left;strokeColor=inherit;top=0;left=0;bottom=0;right=0;spacingLeft=6;fontSize=18;" parent="k6pDDL8mxmZS39vUdsQF-445" vertex="1">
          <mxGeometry x="30" width="180" height="30" as="geometry">
            <mxRectangle width="180" height="30" as="alternateBounds" />
          </mxGeometry>
        </mxCell>
        <mxCell id="k6pDDL8mxmZS39vUdsQF-448" value="" style="shape=tableRow;horizontal=0;startSize=0;swimlaneHead=0;swimlaneBody=0;fillColor=none;collapsible=0;dropTarget=0;points=[[0,0.5],[1,0.5]];portConstraint=eastwest;strokeColor=inherit;top=0;left=0;right=0;bottom=0;fontSize=18;" parent="k6pDDL8mxmZS39vUdsQF-441" vertex="1">
          <mxGeometry y="90" width="210" height="30" as="geometry" />
        </mxCell>
        <mxCell id="k6pDDL8mxmZS39vUdsQF-449" value="" style="shape=partialRectangle;overflow=hidden;connectable=0;fillColor=none;strokeColor=inherit;top=0;left=0;bottom=0;right=0;fontSize=18;" parent="k6pDDL8mxmZS39vUdsQF-448" vertex="1">
          <mxGeometry width="30" height="30" as="geometry">
            <mxRectangle width="30" height="30" as="alternateBounds" />
          </mxGeometry>
        </mxCell>
        <mxCell id="k6pDDL8mxmZS39vUdsQF-450" value="Location " style="shape=partialRectangle;overflow=hidden;connectable=0;fillColor=none;align=left;strokeColor=inherit;top=0;left=0;bottom=0;right=0;spacingLeft=6;fontSize=18;" parent="k6pDDL8mxmZS39vUdsQF-448" vertex="1">
          <mxGeometry x="30" width="180" height="30" as="geometry">
            <mxRectangle width="180" height="30" as="alternateBounds" />
          </mxGeometry>
        </mxCell>
        <mxCell id="k6pDDL8mxmZS39vUdsQF-451" value="" style="shape=tableRow;horizontal=0;startSize=0;swimlaneHead=0;swimlaneBody=0;fillColor=none;collapsible=0;dropTarget=0;points=[[0,0.5],[1,0.5]];portConstraint=eastwest;strokeColor=inherit;top=0;left=0;right=0;bottom=0;fontSize=18;" parent="k6pDDL8mxmZS39vUdsQF-441" vertex="1">
          <mxGeometry y="120" width="210" height="30" as="geometry" />
        </mxCell>
        <mxCell id="k6pDDL8mxmZS39vUdsQF-452" value="" style="shape=partialRectangle;overflow=hidden;connectable=0;fillColor=none;strokeColor=inherit;top=0;left=0;bottom=0;right=0;fontSize=18;" parent="k6pDDL8mxmZS39vUdsQF-451" vertex="1">
          <mxGeometry width="30" height="30" as="geometry">
            <mxRectangle width="30" height="30" as="alternateBounds" />
          </mxGeometry>
        </mxCell>
        <mxCell id="k6pDDL8mxmZS39vUdsQF-453" value="ContactInfo " style="shape=partialRectangle;overflow=hidden;connectable=0;fillColor=none;align=left;strokeColor=inherit;top=0;left=0;bottom=0;right=0;spacingLeft=6;fontSize=18;" parent="k6pDDL8mxmZS39vUdsQF-451" vertex="1">
          <mxGeometry x="30" width="180" height="30" as="geometry">
            <mxRectangle width="180" height="30" as="alternateBounds" />
          </mxGeometry>
        </mxCell>
        <mxCell id="k6pDDL8mxmZS39vUdsQF-454" value="Products" style="shape=table;startSize=30;container=1;collapsible=1;childLayout=tableLayout;fixedRows=1;rowLines=0;fontStyle=1;align=center;resizeLast=1;fontSize=18;" parent="1" vertex="1">
          <mxGeometry x="90" y="-210" width="220" height="210" as="geometry" />
        </mxCell>
        <mxCell id="k6pDDL8mxmZS39vUdsQF-455" value="" style="shape=tableRow;horizontal=0;startSize=0;swimlaneHead=0;swimlaneBody=0;fillColor=none;collapsible=0;dropTarget=0;points=[[0,0.5],[1,0.5]];portConstraint=eastwest;strokeColor=inherit;top=0;left=0;right=0;bottom=1;fontSize=18;" parent="k6pDDL8mxmZS39vUdsQF-454" vertex="1">
          <mxGeometry y="30" width="220" height="30" as="geometry" />
        </mxCell>
        <mxCell id="k6pDDL8mxmZS39vUdsQF-456" value="PK" style="shape=partialRectangle;overflow=hidden;connectable=0;fillColor=none;strokeColor=inherit;top=0;left=0;bottom=0;right=0;fontStyle=1;fontSize=18;" parent="k6pDDL8mxmZS39vUdsQF-455" vertex="1">
          <mxGeometry width="30" height="30" as="geometry">
            <mxRectangle width="30" height="30" as="alternateBounds" />
          </mxGeometry>
        </mxCell>
        <mxCell id="k6pDDL8mxmZS39vUdsQF-457" value="ProductID INT " style="shape=partialRectangle;overflow=hidden;connectable=0;fillColor=none;align=left;strokeColor=inherit;top=0;left=0;bottom=0;right=0;spacingLeft=6;fontStyle=5;fontSize=18;" parent="k6pDDL8mxmZS39vUdsQF-455" vertex="1">
          <mxGeometry x="30" width="190" height="30" as="geometry">
            <mxRectangle width="190" height="30" as="alternateBounds" />
          </mxGeometry>
        </mxCell>
        <mxCell id="k6pDDL8mxmZS39vUdsQF-458" value="" style="shape=tableRow;horizontal=0;startSize=0;swimlaneHead=0;swimlaneBody=0;fillColor=none;collapsible=0;dropTarget=0;points=[[0,0.5],[1,0.5]];portConstraint=eastwest;strokeColor=inherit;top=0;left=0;right=0;bottom=0;fontSize=18;" parent="k6pDDL8mxmZS39vUdsQF-454" vertex="1">
          <mxGeometry y="60" width="220" height="30" as="geometry" />
        </mxCell>
        <mxCell id="k6pDDL8mxmZS39vUdsQF-459" value="" style="shape=partialRectangle;overflow=hidden;connectable=0;fillColor=none;strokeColor=inherit;top=0;left=0;bottom=0;right=0;fontSize=18;" parent="k6pDDL8mxmZS39vUdsQF-458" vertex="1">
          <mxGeometry width="30" height="30" as="geometry">
            <mxRectangle width="30" height="30" as="alternateBounds" />
          </mxGeometry>
        </mxCell>
        <mxCell id="k6pDDL8mxmZS39vUdsQF-460" value="ProductName " style="shape=partialRectangle;overflow=hidden;connectable=0;fillColor=none;align=left;strokeColor=inherit;top=0;left=0;bottom=0;right=0;spacingLeft=6;fontSize=18;" parent="k6pDDL8mxmZS39vUdsQF-458" vertex="1">
          <mxGeometry x="30" width="190" height="30" as="geometry">
            <mxRectangle width="190" height="30" as="alternateBounds" />
          </mxGeometry>
        </mxCell>
        <mxCell id="k6pDDL8mxmZS39vUdsQF-461" value="" style="shape=tableRow;horizontal=0;startSize=0;swimlaneHead=0;swimlaneBody=0;fillColor=none;collapsible=0;dropTarget=0;points=[[0,0.5],[1,0.5]];portConstraint=eastwest;strokeColor=inherit;top=0;left=0;right=0;bottom=0;fontSize=18;" parent="k6pDDL8mxmZS39vUdsQF-454" vertex="1">
          <mxGeometry y="90" width="220" height="30" as="geometry" />
        </mxCell>
        <mxCell id="k6pDDL8mxmZS39vUdsQF-462" value="" style="shape=partialRectangle;overflow=hidden;connectable=0;fillColor=none;strokeColor=inherit;top=0;left=0;bottom=0;right=0;fontSize=18;" parent="k6pDDL8mxmZS39vUdsQF-461" vertex="1">
          <mxGeometry width="30" height="30" as="geometry">
            <mxRectangle width="30" height="30" as="alternateBounds" />
          </mxGeometry>
        </mxCell>
        <mxCell id="k6pDDL8mxmZS39vUdsQF-463" value="Category " style="shape=partialRectangle;overflow=hidden;connectable=0;fillColor=none;align=left;strokeColor=inherit;top=0;left=0;bottom=0;right=0;spacingLeft=6;fontSize=18;" parent="k6pDDL8mxmZS39vUdsQF-461" vertex="1">
          <mxGeometry x="30" width="190" height="30" as="geometry">
            <mxRectangle width="190" height="30" as="alternateBounds" />
          </mxGeometry>
        </mxCell>
        <mxCell id="k6pDDL8mxmZS39vUdsQF-464" value="" style="shape=tableRow;horizontal=0;startSize=0;swimlaneHead=0;swimlaneBody=0;fillColor=none;collapsible=0;dropTarget=0;points=[[0,0.5],[1,0.5]];portConstraint=eastwest;strokeColor=inherit;top=0;left=0;right=0;bottom=0;fontSize=18;" parent="k6pDDL8mxmZS39vUdsQF-454" vertex="1">
          <mxGeometry y="120" width="220" height="30" as="geometry" />
        </mxCell>
        <mxCell id="k6pDDL8mxmZS39vUdsQF-465" value="" style="shape=partialRectangle;overflow=hidden;connectable=0;fillColor=none;strokeColor=inherit;top=0;left=0;bottom=0;right=0;fontSize=18;" parent="k6pDDL8mxmZS39vUdsQF-464" vertex="1">
          <mxGeometry width="30" height="30" as="geometry">
            <mxRectangle width="30" height="30" as="alternateBounds" />
          </mxGeometry>
        </mxCell>
        <mxCell id="k6pDDL8mxmZS39vUdsQF-466" value="Manufacturer " style="shape=partialRectangle;overflow=hidden;connectable=0;fillColor=none;align=left;strokeColor=inherit;top=0;left=0;bottom=0;right=0;spacingLeft=6;fontSize=18;" parent="k6pDDL8mxmZS39vUdsQF-464" vertex="1">
          <mxGeometry x="30" width="190" height="30" as="geometry">
            <mxRectangle width="190" height="30" as="alternateBounds" />
          </mxGeometry>
        </mxCell>
        <mxCell id="k6pDDL8mxmZS39vUdsQF-467" value="" style="shape=tableRow;horizontal=0;startSize=0;swimlaneHead=0;swimlaneBody=0;fillColor=none;collapsible=0;dropTarget=0;points=[[0,0.5],[1,0.5]];portConstraint=eastwest;strokeColor=inherit;top=0;left=0;right=0;bottom=0;fontSize=18;" parent="k6pDDL8mxmZS39vUdsQF-454" vertex="1">
          <mxGeometry y="150" width="220" height="30" as="geometry" />
        </mxCell>
        <mxCell id="k6pDDL8mxmZS39vUdsQF-468" value="" style="shape=partialRectangle;overflow=hidden;connectable=0;fillColor=none;strokeColor=inherit;top=0;left=0;bottom=0;right=0;fontSize=18;" parent="k6pDDL8mxmZS39vUdsQF-467" vertex="1">
          <mxGeometry width="30" height="30" as="geometry">
            <mxRectangle width="30" height="30" as="alternateBounds" />
          </mxGeometry>
        </mxCell>
        <mxCell id="k6pDDL8mxmZS39vUdsQF-469" value="Description " style="shape=partialRectangle;overflow=hidden;connectable=0;fillColor=none;align=left;strokeColor=inherit;top=0;left=0;bottom=0;right=0;spacingLeft=6;fontSize=18;" parent="k6pDDL8mxmZS39vUdsQF-467" vertex="1">
          <mxGeometry x="30" width="190" height="30" as="geometry">
            <mxRectangle width="190" height="30" as="alternateBounds" />
          </mxGeometry>
        </mxCell>
        <mxCell id="k6pDDL8mxmZS39vUdsQF-470" value="" style="shape=tableRow;horizontal=0;startSize=0;swimlaneHead=0;swimlaneBody=0;fillColor=none;collapsible=0;dropTarget=0;points=[[0,0.5],[1,0.5]];portConstraint=eastwest;strokeColor=inherit;top=0;left=0;right=0;bottom=0;fontSize=18;" parent="k6pDDL8mxmZS39vUdsQF-454" vertex="1">
          <mxGeometry y="180" width="220" height="30" as="geometry" />
        </mxCell>
        <mxCell id="k6pDDL8mxmZS39vUdsQF-471" value="" style="shape=partialRectangle;overflow=hidden;connectable=0;fillColor=none;strokeColor=inherit;top=0;left=0;bottom=0;right=0;fontSize=18;" parent="k6pDDL8mxmZS39vUdsQF-470" vertex="1">
          <mxGeometry width="30" height="30" as="geometry">
            <mxRectangle width="30" height="30" as="alternateBounds" />
          </mxGeometry>
        </mxCell>
        <mxCell id="k6pDDL8mxmZS39vUdsQF-472" value="UnitPrice " style="shape=partialRectangle;overflow=hidden;connectable=0;fillColor=none;align=left;strokeColor=inherit;top=0;left=0;bottom=0;right=0;spacingLeft=6;fontSize=18;" parent="k6pDDL8mxmZS39vUdsQF-470" vertex="1">
          <mxGeometry x="30" width="190" height="30" as="geometry">
            <mxRectangle width="190" height="30" as="alternateBounds" />
          </mxGeometry>
        </mxCell>
        <mxCell id="k6pDDL8mxmZS39vUdsQF-473" value="Inventory" style="shape=table;startSize=30;container=1;collapsible=1;childLayout=tableLayout;fixedRows=1;rowLines=0;fontStyle=1;align=center;resizeLast=1;fontSize=18;" parent="1" vertex="1">
          <mxGeometry x="430" y="100" width="320" height="210" as="geometry" />
        </mxCell>
        <mxCell id="k6pDDL8mxmZS39vUdsQF-474" value="" style="shape=tableRow;horizontal=0;startSize=0;swimlaneHead=0;swimlaneBody=0;fillColor=none;collapsible=0;dropTarget=0;points=[[0,0.5],[1,0.5]];portConstraint=eastwest;strokeColor=inherit;top=0;left=0;right=0;bottom=1;fontSize=18;" parent="k6pDDL8mxmZS39vUdsQF-473" vertex="1">
          <mxGeometry y="30" width="320" height="30" as="geometry" />
        </mxCell>
        <mxCell id="k6pDDL8mxmZS39vUdsQF-475" value="PK" style="shape=partialRectangle;overflow=hidden;connectable=0;fillColor=none;strokeColor=inherit;top=0;left=0;bottom=0;right=0;fontStyle=1;fontSize=18;" parent="k6pDDL8mxmZS39vUdsQF-474" vertex="1">
          <mxGeometry width="30" height="30" as="geometry">
            <mxRectangle width="30" height="30" as="alternateBounds" />
          </mxGeometry>
        </mxCell>
        <mxCell id="k6pDDL8mxmZS39vUdsQF-476" value="InventoryID" style="shape=partialRectangle;overflow=hidden;connectable=0;fillColor=none;align=left;strokeColor=inherit;top=0;left=0;bottom=0;right=0;spacingLeft=6;fontStyle=5;fontSize=18;" parent="k6pDDL8mxmZS39vUdsQF-474" vertex="1">
          <mxGeometry x="30" width="290" height="30" as="geometry">
            <mxRectangle width="290" height="30" as="alternateBounds" />
          </mxGeometry>
        </mxCell>
        <mxCell id="k6pDDL8mxmZS39vUdsQF-477" value="" style="shape=tableRow;horizontal=0;startSize=0;swimlaneHead=0;swimlaneBody=0;fillColor=none;collapsible=0;dropTarget=0;points=[[0,0.5],[1,0.5]];portConstraint=eastwest;strokeColor=inherit;top=0;left=0;right=0;bottom=1;fontSize=18;" parent="k6pDDL8mxmZS39vUdsQF-473" vertex="1">
          <mxGeometry y="60" width="320" height="30" as="geometry" />
        </mxCell>
        <mxCell id="k6pDDL8mxmZS39vUdsQF-478" value="" style="shape=partialRectangle;overflow=hidden;connectable=0;fillColor=none;strokeColor=inherit;top=0;left=0;bottom=0;right=0;fontStyle=1;fontSize=18;" parent="k6pDDL8mxmZS39vUdsQF-477" vertex="1">
          <mxGeometry width="30" height="30" as="geometry">
            <mxRectangle width="30" height="30" as="alternateBounds" />
          </mxGeometry>
        </mxCell>
        <mxCell id="k6pDDL8mxmZS39vUdsQF-479" value="ProductID" style="shape=partialRectangle;overflow=hidden;connectable=0;fillColor=none;align=left;strokeColor=inherit;top=0;left=0;bottom=0;right=0;spacingLeft=6;fontStyle=1;fontSize=18;" parent="k6pDDL8mxmZS39vUdsQF-477" vertex="1">
          <mxGeometry x="30" width="290" height="30" as="geometry">
            <mxRectangle width="290" height="30" as="alternateBounds" />
          </mxGeometry>
        </mxCell>
        <mxCell id="k6pDDL8mxmZS39vUdsQF-480" value="" style="shape=tableRow;horizontal=0;startSize=0;swimlaneHead=0;swimlaneBody=0;fillColor=none;collapsible=0;dropTarget=0;points=[[0,0.5],[1,0.5]];portConstraint=eastwest;strokeColor=inherit;top=0;left=0;right=0;bottom=1;fontSize=18;" parent="k6pDDL8mxmZS39vUdsQF-473" vertex="1">
          <mxGeometry y="90" width="320" height="30" as="geometry" />
        </mxCell>
        <mxCell id="k6pDDL8mxmZS39vUdsQF-481" value="" style="shape=partialRectangle;overflow=hidden;connectable=0;fillColor=none;strokeColor=inherit;top=0;left=0;bottom=0;right=0;fontStyle=1;fontSize=18;" parent="k6pDDL8mxmZS39vUdsQF-480" vertex="1">
          <mxGeometry width="30" height="30" as="geometry">
            <mxRectangle width="30" height="30" as="alternateBounds" />
          </mxGeometry>
        </mxCell>
        <mxCell id="k6pDDL8mxmZS39vUdsQF-482" value="StoreID" style="shape=partialRectangle;overflow=hidden;connectable=0;fillColor=none;align=left;strokeColor=inherit;top=0;left=0;bottom=0;right=0;spacingLeft=6;fontStyle=1;fontSize=18;" parent="k6pDDL8mxmZS39vUdsQF-480" vertex="1">
          <mxGeometry x="30" width="290" height="30" as="geometry">
            <mxRectangle width="290" height="30" as="alternateBounds" />
          </mxGeometry>
        </mxCell>
        <mxCell id="k6pDDL8mxmZS39vUdsQF-483" value="" style="shape=tableRow;horizontal=0;startSize=0;swimlaneHead=0;swimlaneBody=0;fillColor=none;collapsible=0;dropTarget=0;points=[[0,0.5],[1,0.5]];portConstraint=eastwest;strokeColor=inherit;top=0;left=0;right=0;bottom=0;fontSize=18;" parent="k6pDDL8mxmZS39vUdsQF-473" vertex="1">
          <mxGeometry y="120" width="320" height="30" as="geometry" />
        </mxCell>
        <mxCell id="k6pDDL8mxmZS39vUdsQF-484" value="" style="shape=partialRectangle;overflow=hidden;connectable=0;fillColor=none;strokeColor=inherit;top=0;left=0;bottom=0;right=0;fontSize=18;" parent="k6pDDL8mxmZS39vUdsQF-483" vertex="1">
          <mxGeometry width="30" height="30" as="geometry">
            <mxRectangle width="30" height="30" as="alternateBounds" />
          </mxGeometry>
        </mxCell>
        <mxCell id="k6pDDL8mxmZS39vUdsQF-485" value="QuantityOnHand " style="shape=partialRectangle;overflow=hidden;connectable=0;fillColor=none;align=left;strokeColor=inherit;top=0;left=0;bottom=0;right=0;spacingLeft=6;fontSize=18;" parent="k6pDDL8mxmZS39vUdsQF-483" vertex="1">
          <mxGeometry x="30" width="290" height="30" as="geometry">
            <mxRectangle width="290" height="30" as="alternateBounds" />
          </mxGeometry>
        </mxCell>
        <mxCell id="k6pDDL8mxmZS39vUdsQF-486" value="" style="shape=tableRow;horizontal=0;startSize=0;swimlaneHead=0;swimlaneBody=0;fillColor=none;collapsible=0;dropTarget=0;points=[[0,0.5],[1,0.5]];portConstraint=eastwest;strokeColor=inherit;top=0;left=0;right=0;bottom=0;fontSize=18;" parent="k6pDDL8mxmZS39vUdsQF-473" vertex="1">
          <mxGeometry y="150" width="320" height="30" as="geometry" />
        </mxCell>
        <mxCell id="k6pDDL8mxmZS39vUdsQF-487" value="" style="shape=partialRectangle;overflow=hidden;connectable=0;fillColor=none;strokeColor=inherit;top=0;left=0;bottom=0;right=0;fontSize=18;" parent="k6pDDL8mxmZS39vUdsQF-486" vertex="1">
          <mxGeometry width="30" height="30" as="geometry">
            <mxRectangle width="30" height="30" as="alternateBounds" />
          </mxGeometry>
        </mxCell>
        <mxCell id="k6pDDL8mxmZS39vUdsQF-488" value="ReorderPoint " style="shape=partialRectangle;overflow=hidden;connectable=0;fillColor=none;align=left;strokeColor=inherit;top=0;left=0;bottom=0;right=0;spacingLeft=6;fontSize=18;" parent="k6pDDL8mxmZS39vUdsQF-486" vertex="1">
          <mxGeometry x="30" width="290" height="30" as="geometry">
            <mxRectangle width="290" height="30" as="alternateBounds" />
          </mxGeometry>
        </mxCell>
        <mxCell id="k6pDDL8mxmZS39vUdsQF-489" value="" style="shape=tableRow;horizontal=0;startSize=0;swimlaneHead=0;swimlaneBody=0;fillColor=none;collapsible=0;dropTarget=0;points=[[0,0.5],[1,0.5]];portConstraint=eastwest;strokeColor=inherit;top=0;left=0;right=0;bottom=0;fontSize=18;" parent="k6pDDL8mxmZS39vUdsQF-473" vertex="1">
          <mxGeometry y="180" width="320" height="30" as="geometry" />
        </mxCell>
        <mxCell id="k6pDDL8mxmZS39vUdsQF-490" value="" style="shape=partialRectangle;overflow=hidden;connectable=0;fillColor=none;strokeColor=inherit;top=0;left=0;bottom=0;right=0;fontSize=18;" parent="k6pDDL8mxmZS39vUdsQF-489" vertex="1">
          <mxGeometry width="30" height="30" as="geometry">
            <mxRectangle width="30" height="30" as="alternateBounds" />
          </mxGeometry>
        </mxCell>
        <mxCell id="k6pDDL8mxmZS39vUdsQF-491" value="LastRestockDate " style="shape=partialRectangle;overflow=hidden;connectable=0;fillColor=none;align=left;strokeColor=inherit;top=0;left=0;bottom=0;right=0;spacingLeft=6;fontSize=18;" parent="k6pDDL8mxmZS39vUdsQF-489" vertex="1">
          <mxGeometry x="30" width="290" height="30" as="geometry">
            <mxRectangle width="290" height="30" as="alternateBounds" />
          </mxGeometry>
        </mxCell>
        <mxCell id="k6pDDL8mxmZS39vUdsQF-498" value="Planogram" style="shape=table;startSize=30;container=1;collapsible=1;childLayout=tableLayout;fixedRows=1;rowLines=0;fontStyle=1;align=center;resizeLast=1;fontSize=18;" parent="1" vertex="1">
          <mxGeometry x="820" y="-110" width="230" height="150" as="geometry" />
        </mxCell>
        <mxCell id="k6pDDL8mxmZS39vUdsQF-499" value="" style="shape=tableRow;horizontal=0;startSize=0;swimlaneHead=0;swimlaneBody=0;fillColor=none;collapsible=0;dropTarget=0;points=[[0,0.5],[1,0.5]];portConstraint=eastwest;strokeColor=inherit;top=0;left=0;right=0;bottom=1;fontSize=18;" parent="k6pDDL8mxmZS39vUdsQF-498" vertex="1">
          <mxGeometry y="30" width="230" height="30" as="geometry" />
        </mxCell>
        <mxCell id="k6pDDL8mxmZS39vUdsQF-500" value="PK" style="shape=partialRectangle;overflow=hidden;connectable=0;fillColor=none;strokeColor=inherit;top=0;left=0;bottom=0;right=0;fontStyle=1;fontSize=18;" parent="k6pDDL8mxmZS39vUdsQF-499" vertex="1">
          <mxGeometry width="30" height="30" as="geometry">
            <mxRectangle width="30" height="30" as="alternateBounds" />
          </mxGeometry>
        </mxCell>
        <mxCell id="k6pDDL8mxmZS39vUdsQF-501" value="LocationID INT " style="shape=partialRectangle;overflow=hidden;connectable=0;fillColor=none;align=left;strokeColor=inherit;top=0;left=0;bottom=0;right=0;spacingLeft=6;fontStyle=5;fontSize=18;" parent="k6pDDL8mxmZS39vUdsQF-499" vertex="1">
          <mxGeometry x="30" width="200" height="30" as="geometry">
            <mxRectangle width="200" height="30" as="alternateBounds" />
          </mxGeometry>
        </mxCell>
        <mxCell id="k6pDDL8mxmZS39vUdsQF-502" value="" style="shape=tableRow;horizontal=0;startSize=0;swimlaneHead=0;swimlaneBody=0;fillColor=none;collapsible=0;dropTarget=0;points=[[0,0.5],[1,0.5]];portConstraint=eastwest;strokeColor=inherit;top=0;left=0;right=0;bottom=0;fontSize=18;" parent="k6pDDL8mxmZS39vUdsQF-498" vertex="1">
          <mxGeometry y="60" width="230" height="30" as="geometry" />
        </mxCell>
        <mxCell id="k6pDDL8mxmZS39vUdsQF-503" value="" style="shape=partialRectangle;overflow=hidden;connectable=0;fillColor=none;strokeColor=inherit;top=0;left=0;bottom=0;right=0;fontSize=18;" parent="k6pDDL8mxmZS39vUdsQF-502" vertex="1">
          <mxGeometry width="30" height="30" as="geometry">
            <mxRectangle width="30" height="30" as="alternateBounds" />
          </mxGeometry>
        </mxCell>
        <mxCell id="k6pDDL8mxmZS39vUdsQF-504" value="WarehouseZone " style="shape=partialRectangle;overflow=hidden;connectable=0;fillColor=none;align=left;strokeColor=inherit;top=0;left=0;bottom=0;right=0;spacingLeft=6;fontSize=18;" parent="k6pDDL8mxmZS39vUdsQF-502" vertex="1">
          <mxGeometry x="30" width="200" height="30" as="geometry">
            <mxRectangle width="200" height="30" as="alternateBounds" />
          </mxGeometry>
        </mxCell>
        <mxCell id="k6pDDL8mxmZS39vUdsQF-505" value="" style="shape=tableRow;horizontal=0;startSize=0;swimlaneHead=0;swimlaneBody=0;fillColor=none;collapsible=0;dropTarget=0;points=[[0,0.5],[1,0.5]];portConstraint=eastwest;strokeColor=inherit;top=0;left=0;right=0;bottom=0;fontSize=18;" parent="k6pDDL8mxmZS39vUdsQF-498" vertex="1">
          <mxGeometry y="90" width="230" height="30" as="geometry" />
        </mxCell>
        <mxCell id="k6pDDL8mxmZS39vUdsQF-506" value="" style="shape=partialRectangle;overflow=hidden;connectable=0;fillColor=none;strokeColor=inherit;top=0;left=0;bottom=0;right=0;fontSize=18;" parent="k6pDDL8mxmZS39vUdsQF-505" vertex="1">
          <mxGeometry width="30" height="30" as="geometry">
            <mxRectangle width="30" height="30" as="alternateBounds" />
          </mxGeometry>
        </mxCell>
        <mxCell id="k6pDDL8mxmZS39vUdsQF-507" value="AisleNumber " style="shape=partialRectangle;overflow=hidden;connectable=0;fillColor=none;align=left;strokeColor=inherit;top=0;left=0;bottom=0;right=0;spacingLeft=6;fontSize=18;" parent="k6pDDL8mxmZS39vUdsQF-505" vertex="1">
          <mxGeometry x="30" width="200" height="30" as="geometry">
            <mxRectangle width="200" height="30" as="alternateBounds" />
          </mxGeometry>
        </mxCell>
        <mxCell id="k6pDDL8mxmZS39vUdsQF-508" value="" style="shape=tableRow;horizontal=0;startSize=0;swimlaneHead=0;swimlaneBody=0;fillColor=none;collapsible=0;dropTarget=0;points=[[0,0.5],[1,0.5]];portConstraint=eastwest;strokeColor=inherit;top=0;left=0;right=0;bottom=0;fontSize=18;" parent="k6pDDL8mxmZS39vUdsQF-498" vertex="1">
          <mxGeometry y="120" width="230" height="30" as="geometry" />
        </mxCell>
        <mxCell id="k6pDDL8mxmZS39vUdsQF-509" value="" style="shape=partialRectangle;overflow=hidden;connectable=0;fillColor=none;strokeColor=inherit;top=0;left=0;bottom=0;right=0;fontSize=18;" parent="k6pDDL8mxmZS39vUdsQF-508" vertex="1">
          <mxGeometry width="30" height="30" as="geometry">
            <mxRectangle width="30" height="30" as="alternateBounds" />
          </mxGeometry>
        </mxCell>
        <mxCell id="k6pDDL8mxmZS39vUdsQF-510" value="ShelfNumber " style="shape=partialRectangle;overflow=hidden;connectable=0;fillColor=none;align=left;strokeColor=inherit;top=0;left=0;bottom=0;right=0;spacingLeft=6;fontSize=18;" parent="k6pDDL8mxmZS39vUdsQF-508" vertex="1">
          <mxGeometry x="30" width="200" height="30" as="geometry">
            <mxRectangle width="200" height="30" as="alternateBounds" />
          </mxGeometry>
        </mxCell>
        <mxCell id="k6pDDL8mxmZS39vUdsQF-511" value="Orders" style="shape=table;startSize=30;container=1;collapsible=1;childLayout=tableLayout;fixedRows=1;rowLines=0;fontStyle=1;align=center;resizeLast=1;fontSize=18;" parent="1" vertex="1">
          <mxGeometry x="-740" y="200" width="320" height="210" as="geometry" />
        </mxCell>
        <mxCell id="k6pDDL8mxmZS39vUdsQF-512" value="" style="shape=tableRow;horizontal=0;startSize=0;swimlaneHead=0;swimlaneBody=0;fillColor=none;collapsible=0;dropTarget=0;points=[[0,0.5],[1,0.5]];portConstraint=eastwest;strokeColor=inherit;top=0;left=0;right=0;bottom=1;fontSize=18;" parent="k6pDDL8mxmZS39vUdsQF-511" vertex="1">
          <mxGeometry y="30" width="320" height="30" as="geometry" />
        </mxCell>
        <mxCell id="k6pDDL8mxmZS39vUdsQF-513" value="PK" style="shape=partialRectangle;overflow=hidden;connectable=0;fillColor=none;strokeColor=inherit;top=0;left=0;bottom=0;right=0;fontStyle=1;fontSize=18;" parent="k6pDDL8mxmZS39vUdsQF-512" vertex="1">
          <mxGeometry width="30" height="30" as="geometry">
            <mxRectangle width="30" height="30" as="alternateBounds" />
          </mxGeometry>
        </mxCell>
        <mxCell id="k6pDDL8mxmZS39vUdsQF-514" value="OrderID" style="shape=partialRectangle;overflow=hidden;connectable=0;fillColor=none;align=left;strokeColor=inherit;top=0;left=0;bottom=0;right=0;spacingLeft=6;fontStyle=5;fontSize=18;" parent="k6pDDL8mxmZS39vUdsQF-512" vertex="1">
          <mxGeometry x="30" width="290" height="30" as="geometry">
            <mxRectangle width="290" height="30" as="alternateBounds" />
          </mxGeometry>
        </mxCell>
        <mxCell id="k6pDDL8mxmZS39vUdsQF-515" value="" style="shape=tableRow;horizontal=0;startSize=0;swimlaneHead=0;swimlaneBody=0;fillColor=none;collapsible=0;dropTarget=0;points=[[0,0.5],[1,0.5]];portConstraint=eastwest;strokeColor=inherit;top=0;left=0;right=0;bottom=1;fontSize=18;" parent="k6pDDL8mxmZS39vUdsQF-511" vertex="1">
          <mxGeometry y="60" width="320" height="30" as="geometry" />
        </mxCell>
        <mxCell id="k6pDDL8mxmZS39vUdsQF-516" value="" style="shape=partialRectangle;overflow=hidden;connectable=0;fillColor=none;strokeColor=inherit;top=0;left=0;bottom=0;right=0;fontStyle=1;fontSize=18;" parent="k6pDDL8mxmZS39vUdsQF-515" vertex="1">
          <mxGeometry width="30" height="30" as="geometry">
            <mxRectangle width="30" height="30" as="alternateBounds" />
          </mxGeometry>
        </mxCell>
        <mxCell id="k6pDDL8mxmZS39vUdsQF-517" value="StoreID" style="shape=partialRectangle;overflow=hidden;connectable=0;fillColor=none;align=left;strokeColor=inherit;top=0;left=0;bottom=0;right=0;spacingLeft=6;fontStyle=1;fontSize=18;" parent="k6pDDL8mxmZS39vUdsQF-515" vertex="1">
          <mxGeometry x="30" width="290" height="30" as="geometry">
            <mxRectangle width="290" height="30" as="alternateBounds" />
          </mxGeometry>
        </mxCell>
        <mxCell id="k6pDDL8mxmZS39vUdsQF-518" value="" style="shape=tableRow;horizontal=0;startSize=0;swimlaneHead=0;swimlaneBody=0;fillColor=none;collapsible=0;dropTarget=0;points=[[0,0.5],[1,0.5]];portConstraint=eastwest;strokeColor=inherit;top=0;left=0;right=0;bottom=1;fontSize=18;" parent="k6pDDL8mxmZS39vUdsQF-511" vertex="1">
          <mxGeometry y="90" width="320" height="30" as="geometry" />
        </mxCell>
        <mxCell id="k6pDDL8mxmZS39vUdsQF-519" value="" style="shape=partialRectangle;overflow=hidden;connectable=0;fillColor=none;strokeColor=inherit;top=0;left=0;bottom=0;right=0;fontStyle=1;fontSize=18;" parent="k6pDDL8mxmZS39vUdsQF-518" vertex="1">
          <mxGeometry width="30" height="30" as="geometry">
            <mxRectangle width="30" height="30" as="alternateBounds" />
          </mxGeometry>
        </mxCell>
        <mxCell id="k6pDDL8mxmZS39vUdsQF-520" value="EmployeeID" style="shape=partialRectangle;overflow=hidden;connectable=0;fillColor=none;align=left;strokeColor=inherit;top=0;left=0;bottom=0;right=0;spacingLeft=6;fontStyle=1;fontSize=18;" parent="k6pDDL8mxmZS39vUdsQF-518" vertex="1">
          <mxGeometry x="30" width="290" height="30" as="geometry">
            <mxRectangle width="290" height="30" as="alternateBounds" />
          </mxGeometry>
        </mxCell>
        <mxCell id="k6pDDL8mxmZS39vUdsQF-521" value="" style="shape=tableRow;horizontal=0;startSize=0;swimlaneHead=0;swimlaneBody=0;fillColor=none;collapsible=0;dropTarget=0;points=[[0,0.5],[1,0.5]];portConstraint=eastwest;strokeColor=inherit;top=0;left=0;right=0;bottom=0;fontSize=18;" parent="k6pDDL8mxmZS39vUdsQF-511" vertex="1">
          <mxGeometry y="120" width="320" height="30" as="geometry" />
        </mxCell>
        <mxCell id="k6pDDL8mxmZS39vUdsQF-522" value="" style="shape=partialRectangle;overflow=hidden;connectable=0;fillColor=none;strokeColor=inherit;top=0;left=0;bottom=0;right=0;fontSize=18;" parent="k6pDDL8mxmZS39vUdsQF-521" vertex="1">
          <mxGeometry width="30" height="30" as="geometry">
            <mxRectangle width="30" height="30" as="alternateBounds" />
          </mxGeometry>
        </mxCell>
        <mxCell id="k6pDDL8mxmZS39vUdsQF-523" value="OrderDate" style="shape=partialRectangle;overflow=hidden;connectable=0;fillColor=none;align=left;strokeColor=inherit;top=0;left=0;bottom=0;right=0;spacingLeft=6;fontSize=18;" parent="k6pDDL8mxmZS39vUdsQF-521" vertex="1">
          <mxGeometry x="30" width="290" height="30" as="geometry">
            <mxRectangle width="290" height="30" as="alternateBounds" />
          </mxGeometry>
        </mxCell>
        <mxCell id="k6pDDL8mxmZS39vUdsQF-524" value="" style="shape=tableRow;horizontal=0;startSize=0;swimlaneHead=0;swimlaneBody=0;fillColor=none;collapsible=0;dropTarget=0;points=[[0,0.5],[1,0.5]];portConstraint=eastwest;strokeColor=inherit;top=0;left=0;right=0;bottom=0;fontSize=18;" parent="k6pDDL8mxmZS39vUdsQF-511" vertex="1">
          <mxGeometry y="150" width="320" height="30" as="geometry" />
        </mxCell>
        <mxCell id="k6pDDL8mxmZS39vUdsQF-525" value="" style="shape=partialRectangle;overflow=hidden;connectable=0;fillColor=none;strokeColor=inherit;top=0;left=0;bottom=0;right=0;fontSize=18;" parent="k6pDDL8mxmZS39vUdsQF-524" vertex="1">
          <mxGeometry width="30" height="30" as="geometry">
            <mxRectangle width="30" height="30" as="alternateBounds" />
          </mxGeometry>
        </mxCell>
        <mxCell id="k6pDDL8mxmZS39vUdsQF-526" value="ShippedDate " style="shape=partialRectangle;overflow=hidden;connectable=0;fillColor=none;align=left;strokeColor=inherit;top=0;left=0;bottom=0;right=0;spacingLeft=6;fontSize=18;" parent="k6pDDL8mxmZS39vUdsQF-524" vertex="1">
          <mxGeometry x="30" width="290" height="30" as="geometry">
            <mxRectangle width="290" height="30" as="alternateBounds" />
          </mxGeometry>
        </mxCell>
        <mxCell id="k6pDDL8mxmZS39vUdsQF-527" value="" style="shape=tableRow;horizontal=0;startSize=0;swimlaneHead=0;swimlaneBody=0;fillColor=none;collapsible=0;dropTarget=0;points=[[0,0.5],[1,0.5]];portConstraint=eastwest;strokeColor=inherit;top=0;left=0;right=0;bottom=0;fontSize=18;" parent="k6pDDL8mxmZS39vUdsQF-511" vertex="1">
          <mxGeometry y="180" width="320" height="30" as="geometry" />
        </mxCell>
        <mxCell id="k6pDDL8mxmZS39vUdsQF-528" value="" style="shape=partialRectangle;overflow=hidden;connectable=0;fillColor=none;strokeColor=inherit;top=0;left=0;bottom=0;right=0;fontSize=18;" parent="k6pDDL8mxmZS39vUdsQF-527" vertex="1">
          <mxGeometry width="30" height="30" as="geometry">
            <mxRectangle width="30" height="30" as="alternateBounds" />
          </mxGeometry>
        </mxCell>
        <mxCell id="k6pDDL8mxmZS39vUdsQF-529" value="Status " style="shape=partialRectangle;overflow=hidden;connectable=0;fillColor=none;align=left;strokeColor=inherit;top=0;left=0;bottom=0;right=0;spacingLeft=6;fontSize=18;" parent="k6pDDL8mxmZS39vUdsQF-527" vertex="1">
          <mxGeometry x="30" width="290" height="30" as="geometry">
            <mxRectangle width="290" height="30" as="alternateBounds" />
          </mxGeometry>
        </mxCell>
        <mxCell id="k6pDDL8mxmZS39vUdsQF-536" value="OrderDetails" style="shape=table;startSize=30;container=1;collapsible=1;childLayout=tableLayout;fixedRows=1;rowLines=0;fontStyle=1;align=center;resizeLast=1;fontSize=18;" parent="1" vertex="1">
          <mxGeometry x="-360" y="650" width="320" height="180" as="geometry" />
        </mxCell>
        <mxCell id="k6pDDL8mxmZS39vUdsQF-537" value="" style="shape=tableRow;horizontal=0;startSize=0;swimlaneHead=0;swimlaneBody=0;fillColor=none;collapsible=0;dropTarget=0;points=[[0,0.5],[1,0.5]];portConstraint=eastwest;strokeColor=inherit;top=0;left=0;right=0;bottom=1;fontSize=18;" parent="k6pDDL8mxmZS39vUdsQF-536" vertex="1">
          <mxGeometry y="30" width="320" height="30" as="geometry" />
        </mxCell>
        <mxCell id="k6pDDL8mxmZS39vUdsQF-538" value="PK" style="shape=partialRectangle;overflow=hidden;connectable=0;fillColor=none;strokeColor=inherit;top=0;left=0;bottom=0;right=0;fontStyle=1;fontSize=18;" parent="k6pDDL8mxmZS39vUdsQF-537" vertex="1">
          <mxGeometry width="30" height="30" as="geometry">
            <mxRectangle width="30" height="30" as="alternateBounds" />
          </mxGeometry>
        </mxCell>
        <mxCell id="k6pDDL8mxmZS39vUdsQF-539" value="OrderDetailID" style="shape=partialRectangle;overflow=hidden;connectable=0;fillColor=none;align=left;strokeColor=inherit;top=0;left=0;bottom=0;right=0;spacingLeft=6;fontStyle=5;fontSize=18;" parent="k6pDDL8mxmZS39vUdsQF-537" vertex="1">
          <mxGeometry x="30" width="290" height="30" as="geometry">
            <mxRectangle width="290" height="30" as="alternateBounds" />
          </mxGeometry>
        </mxCell>
        <mxCell id="k6pDDL8mxmZS39vUdsQF-540" value="" style="shape=tableRow;horizontal=0;startSize=0;swimlaneHead=0;swimlaneBody=0;fillColor=none;collapsible=0;dropTarget=0;points=[[0,0.5],[1,0.5]];portConstraint=eastwest;strokeColor=inherit;top=0;left=0;right=0;bottom=1;fontSize=18;" parent="k6pDDL8mxmZS39vUdsQF-536" vertex="1">
          <mxGeometry y="60" width="320" height="30" as="geometry" />
        </mxCell>
        <mxCell id="k6pDDL8mxmZS39vUdsQF-541" value="" style="shape=partialRectangle;overflow=hidden;connectable=0;fillColor=none;strokeColor=inherit;top=0;left=0;bottom=0;right=0;fontStyle=1;fontSize=18;" parent="k6pDDL8mxmZS39vUdsQF-540" vertex="1">
          <mxGeometry width="30" height="30" as="geometry">
            <mxRectangle width="30" height="30" as="alternateBounds" />
          </mxGeometry>
        </mxCell>
        <mxCell id="k6pDDL8mxmZS39vUdsQF-542" value="OrderID " style="shape=partialRectangle;overflow=hidden;connectable=0;fillColor=none;align=left;strokeColor=inherit;top=0;left=0;bottom=0;right=0;spacingLeft=6;fontStyle=1;fontSize=18;" parent="k6pDDL8mxmZS39vUdsQF-540" vertex="1">
          <mxGeometry x="30" width="290" height="30" as="geometry">
            <mxRectangle width="290" height="30" as="alternateBounds" />
          </mxGeometry>
        </mxCell>
        <mxCell id="k6pDDL8mxmZS39vUdsQF-543" value="" style="shape=tableRow;horizontal=0;startSize=0;swimlaneHead=0;swimlaneBody=0;fillColor=none;collapsible=0;dropTarget=0;points=[[0,0.5],[1,0.5]];portConstraint=eastwest;strokeColor=inherit;top=0;left=0;right=0;bottom=1;fontSize=18;" parent="k6pDDL8mxmZS39vUdsQF-536" vertex="1">
          <mxGeometry y="90" width="320" height="30" as="geometry" />
        </mxCell>
        <mxCell id="k6pDDL8mxmZS39vUdsQF-544" value="" style="shape=partialRectangle;overflow=hidden;connectable=0;fillColor=none;strokeColor=inherit;top=0;left=0;bottom=0;right=0;fontStyle=1;fontSize=18;" parent="k6pDDL8mxmZS39vUdsQF-543" vertex="1">
          <mxGeometry width="30" height="30" as="geometry">
            <mxRectangle width="30" height="30" as="alternateBounds" />
          </mxGeometry>
        </mxCell>
        <mxCell id="k6pDDL8mxmZS39vUdsQF-545" value="ProductID" style="shape=partialRectangle;overflow=hidden;connectable=0;fillColor=none;align=left;strokeColor=inherit;top=0;left=0;bottom=0;right=0;spacingLeft=6;fontStyle=1;fontSize=18;" parent="k6pDDL8mxmZS39vUdsQF-543" vertex="1">
          <mxGeometry x="30" width="290" height="30" as="geometry">
            <mxRectangle width="290" height="30" as="alternateBounds" />
          </mxGeometry>
        </mxCell>
        <mxCell id="k6pDDL8mxmZS39vUdsQF-546" value="" style="shape=tableRow;horizontal=0;startSize=0;swimlaneHead=0;swimlaneBody=0;fillColor=none;collapsible=0;dropTarget=0;points=[[0,0.5],[1,0.5]];portConstraint=eastwest;strokeColor=inherit;top=0;left=0;right=0;bottom=0;fontSize=18;" parent="k6pDDL8mxmZS39vUdsQF-536" vertex="1">
          <mxGeometry y="120" width="320" height="30" as="geometry" />
        </mxCell>
        <mxCell id="k6pDDL8mxmZS39vUdsQF-547" value="" style="shape=partialRectangle;overflow=hidden;connectable=0;fillColor=none;strokeColor=inherit;top=0;left=0;bottom=0;right=0;fontSize=18;" parent="k6pDDL8mxmZS39vUdsQF-546" vertex="1">
          <mxGeometry width="30" height="30" as="geometry">
            <mxRectangle width="30" height="30" as="alternateBounds" />
          </mxGeometry>
        </mxCell>
        <mxCell id="k6pDDL8mxmZS39vUdsQF-548" value="QuantityOrdered " style="shape=partialRectangle;overflow=hidden;connectable=0;fillColor=none;align=left;strokeColor=inherit;top=0;left=0;bottom=0;right=0;spacingLeft=6;fontSize=18;" parent="k6pDDL8mxmZS39vUdsQF-546" vertex="1">
          <mxGeometry x="30" width="290" height="30" as="geometry">
            <mxRectangle width="290" height="30" as="alternateBounds" />
          </mxGeometry>
        </mxCell>
        <mxCell id="k6pDDL8mxmZS39vUdsQF-549" value="" style="shape=tableRow;horizontal=0;startSize=0;swimlaneHead=0;swimlaneBody=0;fillColor=none;collapsible=0;dropTarget=0;points=[[0,0.5],[1,0.5]];portConstraint=eastwest;strokeColor=inherit;top=0;left=0;right=0;bottom=0;fontSize=18;" parent="k6pDDL8mxmZS39vUdsQF-536" vertex="1">
          <mxGeometry y="150" width="320" height="30" as="geometry" />
        </mxCell>
        <mxCell id="k6pDDL8mxmZS39vUdsQF-550" value="" style="shape=partialRectangle;overflow=hidden;connectable=0;fillColor=none;strokeColor=inherit;top=0;left=0;bottom=0;right=0;fontSize=18;" parent="k6pDDL8mxmZS39vUdsQF-549" vertex="1">
          <mxGeometry width="30" height="30" as="geometry">
            <mxRectangle width="30" height="30" as="alternateBounds" />
          </mxGeometry>
        </mxCell>
        <mxCell id="k6pDDL8mxmZS39vUdsQF-551" value="UnitPrice " style="shape=partialRectangle;overflow=hidden;connectable=0;fillColor=none;align=left;strokeColor=inherit;top=0;left=0;bottom=0;right=0;spacingLeft=6;fontSize=18;" parent="k6pDDL8mxmZS39vUdsQF-549" vertex="1">
          <mxGeometry x="30" width="290" height="30" as="geometry">
            <mxRectangle width="290" height="30" as="alternateBounds" />
          </mxGeometry>
        </mxCell>
        <mxCell id="k6pDDL8mxmZS39vUdsQF-558" value="Shipments" style="shape=table;startSize=30;container=1;collapsible=1;childLayout=tableLayout;fixedRows=1;rowLines=0;fontStyle=1;align=center;resizeLast=1;fontSize=18;" parent="1" vertex="1">
          <mxGeometry x="-1210" y="530" width="290" height="180" as="geometry" />
        </mxCell>
        <mxCell id="k6pDDL8mxmZS39vUdsQF-559" value="" style="shape=tableRow;horizontal=0;startSize=0;swimlaneHead=0;swimlaneBody=0;fillColor=none;collapsible=0;dropTarget=0;points=[[0,0.5],[1,0.5]];portConstraint=eastwest;strokeColor=inherit;top=0;left=0;right=0;bottom=1;fontSize=18;" parent="k6pDDL8mxmZS39vUdsQF-558" vertex="1">
          <mxGeometry y="30" width="290" height="30" as="geometry" />
        </mxCell>
        <mxCell id="k6pDDL8mxmZS39vUdsQF-560" value="PK" style="shape=partialRectangle;overflow=hidden;connectable=0;fillColor=none;strokeColor=inherit;top=0;left=0;bottom=0;right=0;fontStyle=1;fontSize=18;" parent="k6pDDL8mxmZS39vUdsQF-559" vertex="1">
          <mxGeometry width="30" height="30" as="geometry">
            <mxRectangle width="30" height="30" as="alternateBounds" />
          </mxGeometry>
        </mxCell>
        <mxCell id="k6pDDL8mxmZS39vUdsQF-561" value="ShipmentID" style="shape=partialRectangle;overflow=hidden;connectable=0;fillColor=none;align=left;strokeColor=inherit;top=0;left=0;bottom=0;right=0;spacingLeft=6;fontStyle=5;fontSize=18;" parent="k6pDDL8mxmZS39vUdsQF-559" vertex="1">
          <mxGeometry x="30" width="260" height="30" as="geometry">
            <mxRectangle width="260" height="30" as="alternateBounds" />
          </mxGeometry>
        </mxCell>
        <mxCell id="k6pDDL8mxmZS39vUdsQF-562" value="" style="shape=tableRow;horizontal=0;startSize=0;swimlaneHead=0;swimlaneBody=0;fillColor=none;collapsible=0;dropTarget=0;points=[[0,0.5],[1,0.5]];portConstraint=eastwest;strokeColor=inherit;top=0;left=0;right=0;bottom=1;fontSize=18;" parent="k6pDDL8mxmZS39vUdsQF-558" vertex="1">
          <mxGeometry y="60" width="290" height="30" as="geometry" />
        </mxCell>
        <mxCell id="k6pDDL8mxmZS39vUdsQF-563" value="" style="shape=partialRectangle;overflow=hidden;connectable=0;fillColor=none;strokeColor=inherit;top=0;left=0;bottom=0;right=0;fontStyle=1;fontSize=18;" parent="k6pDDL8mxmZS39vUdsQF-562" vertex="1">
          <mxGeometry width="30" height="30" as="geometry">
            <mxRectangle width="30" height="30" as="alternateBounds" />
          </mxGeometry>
        </mxCell>
        <mxCell id="k6pDDL8mxmZS39vUdsQF-564" value="OrderID" style="shape=partialRectangle;overflow=hidden;connectable=0;fillColor=none;align=left;strokeColor=inherit;top=0;left=0;bottom=0;right=0;spacingLeft=6;fontStyle=1;fontSize=18;" parent="k6pDDL8mxmZS39vUdsQF-562" vertex="1">
          <mxGeometry x="30" width="260" height="30" as="geometry">
            <mxRectangle width="260" height="30" as="alternateBounds" />
          </mxGeometry>
        </mxCell>
        <mxCell id="k6pDDL8mxmZS39vUdsQF-565" value="" style="shape=tableRow;horizontal=0;startSize=0;swimlaneHead=0;swimlaneBody=0;fillColor=none;collapsible=0;dropTarget=0;points=[[0,0.5],[1,0.5]];portConstraint=eastwest;strokeColor=inherit;top=0;left=0;right=0;bottom=0;fontSize=18;" parent="k6pDDL8mxmZS39vUdsQF-558" vertex="1">
          <mxGeometry y="90" width="290" height="30" as="geometry" />
        </mxCell>
        <mxCell id="k6pDDL8mxmZS39vUdsQF-566" value="" style="shape=partialRectangle;overflow=hidden;connectable=0;fillColor=none;strokeColor=inherit;top=0;left=0;bottom=0;right=0;fontSize=18;" parent="k6pDDL8mxmZS39vUdsQF-565" vertex="1">
          <mxGeometry width="30" height="30" as="geometry">
            <mxRectangle width="30" height="30" as="alternateBounds" />
          </mxGeometry>
        </mxCell>
        <mxCell id="k6pDDL8mxmZS39vUdsQF-567" value="ShipmentDate " style="shape=partialRectangle;overflow=hidden;connectable=0;fillColor=none;align=left;strokeColor=inherit;top=0;left=0;bottom=0;right=0;spacingLeft=6;fontSize=18;" parent="k6pDDL8mxmZS39vUdsQF-565" vertex="1">
          <mxGeometry x="30" width="260" height="30" as="geometry">
            <mxRectangle width="260" height="30" as="alternateBounds" />
          </mxGeometry>
        </mxCell>
        <mxCell id="k6pDDL8mxmZS39vUdsQF-568" value="" style="shape=tableRow;horizontal=0;startSize=0;swimlaneHead=0;swimlaneBody=0;fillColor=none;collapsible=0;dropTarget=0;points=[[0,0.5],[1,0.5]];portConstraint=eastwest;strokeColor=inherit;top=0;left=0;right=0;bottom=0;fontSize=18;" parent="k6pDDL8mxmZS39vUdsQF-558" vertex="1">
          <mxGeometry y="120" width="290" height="30" as="geometry" />
        </mxCell>
        <mxCell id="k6pDDL8mxmZS39vUdsQF-569" value="" style="shape=partialRectangle;overflow=hidden;connectable=0;fillColor=none;strokeColor=inherit;top=0;left=0;bottom=0;right=0;fontSize=18;" parent="k6pDDL8mxmZS39vUdsQF-568" vertex="1">
          <mxGeometry width="30" height="30" as="geometry">
            <mxRectangle width="30" height="30" as="alternateBounds" />
          </mxGeometry>
        </mxCell>
        <mxCell id="k6pDDL8mxmZS39vUdsQF-570" value="Carrier" style="shape=partialRectangle;overflow=hidden;connectable=0;fillColor=none;align=left;strokeColor=inherit;top=0;left=0;bottom=0;right=0;spacingLeft=6;fontSize=18;" parent="k6pDDL8mxmZS39vUdsQF-568" vertex="1">
          <mxGeometry x="30" width="260" height="30" as="geometry">
            <mxRectangle width="260" height="30" as="alternateBounds" />
          </mxGeometry>
        </mxCell>
        <mxCell id="k6pDDL8mxmZS39vUdsQF-571" value="" style="shape=tableRow;horizontal=0;startSize=0;swimlaneHead=0;swimlaneBody=0;fillColor=none;collapsible=0;dropTarget=0;points=[[0,0.5],[1,0.5]];portConstraint=eastwest;strokeColor=inherit;top=0;left=0;right=0;bottom=0;fontSize=18;" parent="k6pDDL8mxmZS39vUdsQF-558" vertex="1">
          <mxGeometry y="150" width="290" height="20" as="geometry" />
        </mxCell>
        <mxCell id="k6pDDL8mxmZS39vUdsQF-572" value="" style="shape=partialRectangle;overflow=hidden;connectable=0;fillColor=none;strokeColor=inherit;top=0;left=0;bottom=0;right=0;fontSize=18;" parent="k6pDDL8mxmZS39vUdsQF-571" vertex="1">
          <mxGeometry width="30" height="20" as="geometry">
            <mxRectangle width="30" height="20" as="alternateBounds" />
          </mxGeometry>
        </mxCell>
        <mxCell id="k6pDDL8mxmZS39vUdsQF-573" value="TrackingNumber " style="shape=partialRectangle;overflow=hidden;connectable=0;fillColor=none;align=left;strokeColor=inherit;top=0;left=0;bottom=0;right=0;spacingLeft=6;fontSize=18;" parent="k6pDDL8mxmZS39vUdsQF-571" vertex="1">
          <mxGeometry x="30" width="260" height="20" as="geometry">
            <mxRectangle width="260" height="20" as="alternateBounds" />
          </mxGeometry>
        </mxCell>
        <mxCell id="k6pDDL8mxmZS39vUdsQF-577" value="Employees" style="shape=table;startSize=30;container=1;collapsible=1;childLayout=tableLayout;fixedRows=1;rowLines=0;fontStyle=1;align=center;resizeLast=1;fontSize=18;" parent="1" vertex="1">
          <mxGeometry x="-700" y="-210" width="210" height="210" as="geometry" />
        </mxCell>
        <mxCell id="k6pDDL8mxmZS39vUdsQF-578" value="" style="shape=tableRow;horizontal=0;startSize=0;swimlaneHead=0;swimlaneBody=0;fillColor=none;collapsible=0;dropTarget=0;points=[[0,0.5],[1,0.5]];portConstraint=eastwest;strokeColor=inherit;top=0;left=0;right=0;bottom=1;fontSize=18;" parent="k6pDDL8mxmZS39vUdsQF-577" vertex="1">
          <mxGeometry y="30" width="210" height="30" as="geometry" />
        </mxCell>
        <mxCell id="k6pDDL8mxmZS39vUdsQF-579" value="PK" style="shape=partialRectangle;overflow=hidden;connectable=0;fillColor=none;strokeColor=inherit;top=0;left=0;bottom=0;right=0;fontStyle=1;fontSize=18;" parent="k6pDDL8mxmZS39vUdsQF-578" vertex="1">
          <mxGeometry width="30" height="30" as="geometry">
            <mxRectangle width="30" height="30" as="alternateBounds" />
          </mxGeometry>
        </mxCell>
        <mxCell id="k6pDDL8mxmZS39vUdsQF-580" value="EmployeeID INT " style="shape=partialRectangle;overflow=hidden;connectable=0;fillColor=none;align=left;strokeColor=inherit;top=0;left=0;bottom=0;right=0;spacingLeft=6;fontStyle=5;fontSize=18;" parent="k6pDDL8mxmZS39vUdsQF-578" vertex="1">
          <mxGeometry x="30" width="180" height="30" as="geometry">
            <mxRectangle width="180" height="30" as="alternateBounds" />
          </mxGeometry>
        </mxCell>
        <mxCell id="k6pDDL8mxmZS39vUdsQF-581" value="" style="shape=tableRow;horizontal=0;startSize=0;swimlaneHead=0;swimlaneBody=0;fillColor=none;collapsible=0;dropTarget=0;points=[[0,0.5],[1,0.5]];portConstraint=eastwest;strokeColor=inherit;top=0;left=0;right=0;bottom=0;fontSize=18;" parent="k6pDDL8mxmZS39vUdsQF-577" vertex="1">
          <mxGeometry y="60" width="210" height="30" as="geometry" />
        </mxCell>
        <mxCell id="k6pDDL8mxmZS39vUdsQF-582" value="" style="shape=partialRectangle;overflow=hidden;connectable=0;fillColor=none;strokeColor=inherit;top=0;left=0;bottom=0;right=0;fontSize=18;" parent="k6pDDL8mxmZS39vUdsQF-581" vertex="1">
          <mxGeometry width="30" height="30" as="geometry">
            <mxRectangle width="30" height="30" as="alternateBounds" />
          </mxGeometry>
        </mxCell>
        <mxCell id="k6pDDL8mxmZS39vUdsQF-583" value="FirstName " style="shape=partialRectangle;overflow=hidden;connectable=0;fillColor=none;align=left;strokeColor=inherit;top=0;left=0;bottom=0;right=0;spacingLeft=6;fontSize=18;" parent="k6pDDL8mxmZS39vUdsQF-581" vertex="1">
          <mxGeometry x="30" width="180" height="30" as="geometry">
            <mxRectangle width="180" height="30" as="alternateBounds" />
          </mxGeometry>
        </mxCell>
        <mxCell id="k6pDDL8mxmZS39vUdsQF-584" value="" style="shape=tableRow;horizontal=0;startSize=0;swimlaneHead=0;swimlaneBody=0;fillColor=none;collapsible=0;dropTarget=0;points=[[0,0.5],[1,0.5]];portConstraint=eastwest;strokeColor=inherit;top=0;left=0;right=0;bottom=0;fontSize=18;" parent="k6pDDL8mxmZS39vUdsQF-577" vertex="1">
          <mxGeometry y="90" width="210" height="30" as="geometry" />
        </mxCell>
        <mxCell id="k6pDDL8mxmZS39vUdsQF-585" value="" style="shape=partialRectangle;overflow=hidden;connectable=0;fillColor=none;strokeColor=inherit;top=0;left=0;bottom=0;right=0;fontSize=18;" parent="k6pDDL8mxmZS39vUdsQF-584" vertex="1">
          <mxGeometry width="30" height="30" as="geometry">
            <mxRectangle width="30" height="30" as="alternateBounds" />
          </mxGeometry>
        </mxCell>
        <mxCell id="k6pDDL8mxmZS39vUdsQF-586" value="LastName " style="shape=partialRectangle;overflow=hidden;connectable=0;fillColor=none;align=left;strokeColor=inherit;top=0;left=0;bottom=0;right=0;spacingLeft=6;fontSize=18;" parent="k6pDDL8mxmZS39vUdsQF-584" vertex="1">
          <mxGeometry x="30" width="180" height="30" as="geometry">
            <mxRectangle width="180" height="30" as="alternateBounds" />
          </mxGeometry>
        </mxCell>
        <mxCell id="k6pDDL8mxmZS39vUdsQF-587" value="" style="shape=tableRow;horizontal=0;startSize=0;swimlaneHead=0;swimlaneBody=0;fillColor=none;collapsible=0;dropTarget=0;points=[[0,0.5],[1,0.5]];portConstraint=eastwest;strokeColor=inherit;top=0;left=0;right=0;bottom=0;fontSize=18;" parent="k6pDDL8mxmZS39vUdsQF-577" vertex="1">
          <mxGeometry y="120" width="210" height="30" as="geometry" />
        </mxCell>
        <mxCell id="k6pDDL8mxmZS39vUdsQF-588" value="" style="shape=partialRectangle;overflow=hidden;connectable=0;fillColor=none;strokeColor=inherit;top=0;left=0;bottom=0;right=0;fontSize=18;" parent="k6pDDL8mxmZS39vUdsQF-587" vertex="1">
          <mxGeometry width="30" height="30" as="geometry">
            <mxRectangle width="30" height="30" as="alternateBounds" />
          </mxGeometry>
        </mxCell>
        <mxCell id="k6pDDL8mxmZS39vUdsQF-589" value="Position " style="shape=partialRectangle;overflow=hidden;connectable=0;fillColor=none;align=left;strokeColor=inherit;top=0;left=0;bottom=0;right=0;spacingLeft=6;fontSize=18;" parent="k6pDDL8mxmZS39vUdsQF-587" vertex="1">
          <mxGeometry x="30" width="180" height="30" as="geometry">
            <mxRectangle width="180" height="30" as="alternateBounds" />
          </mxGeometry>
        </mxCell>
        <mxCell id="k6pDDL8mxmZS39vUdsQF-590" value="" style="shape=tableRow;horizontal=0;startSize=0;swimlaneHead=0;swimlaneBody=0;fillColor=none;collapsible=0;dropTarget=0;points=[[0,0.5],[1,0.5]];portConstraint=eastwest;strokeColor=inherit;top=0;left=0;right=0;bottom=0;fontSize=18;" parent="k6pDDL8mxmZS39vUdsQF-577" vertex="1">
          <mxGeometry y="150" width="210" height="30" as="geometry" />
        </mxCell>
        <mxCell id="k6pDDL8mxmZS39vUdsQF-591" value="" style="shape=partialRectangle;overflow=hidden;connectable=0;fillColor=none;strokeColor=inherit;top=0;left=0;bottom=0;right=0;fontSize=18;" parent="k6pDDL8mxmZS39vUdsQF-590" vertex="1">
          <mxGeometry width="30" height="30" as="geometry">
            <mxRectangle width="30" height="30" as="alternateBounds" />
          </mxGeometry>
        </mxCell>
        <mxCell id="k6pDDL8mxmZS39vUdsQF-592" value="ContactInfo " style="shape=partialRectangle;overflow=hidden;connectable=0;fillColor=none;align=left;strokeColor=inherit;top=0;left=0;bottom=0;right=0;spacingLeft=6;fontSize=18;" parent="k6pDDL8mxmZS39vUdsQF-590" vertex="1">
          <mxGeometry x="30" width="180" height="30" as="geometry">
            <mxRectangle width="180" height="30" as="alternateBounds" />
          </mxGeometry>
        </mxCell>
        <mxCell id="k6pDDL8mxmZS39vUdsQF-593" value="" style="shape=tableRow;horizontal=0;startSize=0;swimlaneHead=0;swimlaneBody=0;fillColor=none;collapsible=0;dropTarget=0;points=[[0,0.5],[1,0.5]];portConstraint=eastwest;strokeColor=inherit;top=0;left=0;right=0;bottom=0;fontSize=18;" parent="k6pDDL8mxmZS39vUdsQF-577" vertex="1">
          <mxGeometry y="180" width="210" height="30" as="geometry" />
        </mxCell>
        <mxCell id="k6pDDL8mxmZS39vUdsQF-594" value="" style="shape=partialRectangle;overflow=hidden;connectable=0;fillColor=none;strokeColor=inherit;top=0;left=0;bottom=0;right=0;fontSize=18;" parent="k6pDDL8mxmZS39vUdsQF-593" vertex="1">
          <mxGeometry width="30" height="30" as="geometry">
            <mxRectangle width="30" height="30" as="alternateBounds" />
          </mxGeometry>
        </mxCell>
        <mxCell id="k6pDDL8mxmZS39vUdsQF-595" value="HireDate " style="shape=partialRectangle;overflow=hidden;connectable=0;fillColor=none;align=left;strokeColor=inherit;top=0;left=0;bottom=0;right=0;spacingLeft=6;fontSize=18;" parent="k6pDDL8mxmZS39vUdsQF-593" vertex="1">
          <mxGeometry x="30" width="180" height="30" as="geometry">
            <mxRectangle width="180" height="30" as="alternateBounds" />
          </mxGeometry>
        </mxCell>
        <mxCell id="k6pDDL8mxmZS39vUdsQF-596" value="Transactions" style="shape=table;startSize=30;container=1;collapsible=1;childLayout=tableLayout;fixedRows=1;rowLines=0;fontStyle=1;align=center;resizeLast=1;fontSize=18;" parent="1" vertex="1">
          <mxGeometry x="-360" y="320" width="320" height="210" as="geometry" />
        </mxCell>
        <mxCell id="k6pDDL8mxmZS39vUdsQF-597" value="" style="shape=tableRow;horizontal=0;startSize=0;swimlaneHead=0;swimlaneBody=0;fillColor=none;collapsible=0;dropTarget=0;points=[[0,0.5],[1,0.5]];portConstraint=eastwest;strokeColor=inherit;top=0;left=0;right=0;bottom=1;fontSize=18;" parent="k6pDDL8mxmZS39vUdsQF-596" vertex="1">
          <mxGeometry y="30" width="320" height="30" as="geometry" />
        </mxCell>
        <mxCell id="k6pDDL8mxmZS39vUdsQF-598" value="PK" style="shape=partialRectangle;overflow=hidden;connectable=0;fillColor=none;strokeColor=inherit;top=0;left=0;bottom=0;right=0;fontStyle=1;fontSize=18;" parent="k6pDDL8mxmZS39vUdsQF-597" vertex="1">
          <mxGeometry width="30" height="30" as="geometry">
            <mxRectangle width="30" height="30" as="alternateBounds" />
          </mxGeometry>
        </mxCell>
        <mxCell id="k6pDDL8mxmZS39vUdsQF-599" value="TransactionID" style="shape=partialRectangle;overflow=hidden;connectable=0;fillColor=none;align=left;strokeColor=inherit;top=0;left=0;bottom=0;right=0;spacingLeft=6;fontStyle=5;fontSize=18;" parent="k6pDDL8mxmZS39vUdsQF-597" vertex="1">
          <mxGeometry x="30" width="290" height="30" as="geometry">
            <mxRectangle width="290" height="30" as="alternateBounds" />
          </mxGeometry>
        </mxCell>
        <mxCell id="k6pDDL8mxmZS39vUdsQF-600" value="" style="shape=tableRow;horizontal=0;startSize=0;swimlaneHead=0;swimlaneBody=0;fillColor=none;collapsible=0;dropTarget=0;points=[[0,0.5],[1,0.5]];portConstraint=eastwest;strokeColor=inherit;top=0;left=0;right=0;bottom=1;fontSize=18;" parent="k6pDDL8mxmZS39vUdsQF-596" vertex="1">
          <mxGeometry y="60" width="320" height="30" as="geometry" />
        </mxCell>
        <mxCell id="k6pDDL8mxmZS39vUdsQF-601" value="" style="shape=partialRectangle;overflow=hidden;connectable=0;fillColor=none;strokeColor=inherit;top=0;left=0;bottom=0;right=0;fontStyle=1;fontSize=18;" parent="k6pDDL8mxmZS39vUdsQF-600" vertex="1">
          <mxGeometry width="30" height="30" as="geometry">
            <mxRectangle width="30" height="30" as="alternateBounds" />
          </mxGeometry>
        </mxCell>
        <mxCell id="k6pDDL8mxmZS39vUdsQF-602" value="ProductID" style="shape=partialRectangle;overflow=hidden;connectable=0;fillColor=none;align=left;strokeColor=inherit;top=0;left=0;bottom=0;right=0;spacingLeft=6;fontStyle=1;fontSize=18;" parent="k6pDDL8mxmZS39vUdsQF-600" vertex="1">
          <mxGeometry x="30" width="290" height="30" as="geometry">
            <mxRectangle width="290" height="30" as="alternateBounds" />
          </mxGeometry>
        </mxCell>
        <mxCell id="k6pDDL8mxmZS39vUdsQF-603" value="" style="shape=tableRow;horizontal=0;startSize=0;swimlaneHead=0;swimlaneBody=0;fillColor=none;collapsible=0;dropTarget=0;points=[[0,0.5],[1,0.5]];portConstraint=eastwest;strokeColor=inherit;top=0;left=0;right=0;bottom=1;fontSize=18;" parent="k6pDDL8mxmZS39vUdsQF-596" vertex="1">
          <mxGeometry y="90" width="320" height="30" as="geometry" />
        </mxCell>
        <mxCell id="k6pDDL8mxmZS39vUdsQF-604" value="" style="shape=partialRectangle;overflow=hidden;connectable=0;fillColor=none;strokeColor=inherit;top=0;left=0;bottom=0;right=0;fontStyle=1;fontSize=18;" parent="k6pDDL8mxmZS39vUdsQF-603" vertex="1">
          <mxGeometry width="30" height="30" as="geometry">
            <mxRectangle width="30" height="30" as="alternateBounds" />
          </mxGeometry>
        </mxCell>
        <mxCell id="k6pDDL8mxmZS39vUdsQF-605" value="StoreID" style="shape=partialRectangle;overflow=hidden;connectable=0;fillColor=none;align=left;strokeColor=inherit;top=0;left=0;bottom=0;right=0;spacingLeft=6;fontStyle=1;fontSize=18;" parent="k6pDDL8mxmZS39vUdsQF-603" vertex="1">
          <mxGeometry x="30" width="290" height="30" as="geometry">
            <mxRectangle width="290" height="30" as="alternateBounds" />
          </mxGeometry>
        </mxCell>
        <mxCell id="k6pDDL8mxmZS39vUdsQF-606" value="" style="shape=tableRow;horizontal=0;startSize=0;swimlaneHead=0;swimlaneBody=0;fillColor=none;collapsible=0;dropTarget=0;points=[[0,0.5],[1,0.5]];portConstraint=eastwest;strokeColor=inherit;top=0;left=0;right=0;bottom=0;fontSize=18;" parent="k6pDDL8mxmZS39vUdsQF-596" vertex="1">
          <mxGeometry y="120" width="320" height="30" as="geometry" />
        </mxCell>
        <mxCell id="k6pDDL8mxmZS39vUdsQF-607" value="" style="shape=partialRectangle;overflow=hidden;connectable=0;fillColor=none;strokeColor=inherit;top=0;left=0;bottom=0;right=0;fontSize=18;" parent="k6pDDL8mxmZS39vUdsQF-606" vertex="1">
          <mxGeometry width="30" height="30" as="geometry">
            <mxRectangle width="30" height="30" as="alternateBounds" />
          </mxGeometry>
        </mxCell>
        <mxCell id="k6pDDL8mxmZS39vUdsQF-608" value="Quantity " style="shape=partialRectangle;overflow=hidden;connectable=0;fillColor=none;align=left;strokeColor=inherit;top=0;left=0;bottom=0;right=0;spacingLeft=6;fontSize=18;" parent="k6pDDL8mxmZS39vUdsQF-606" vertex="1">
          <mxGeometry x="30" width="290" height="30" as="geometry">
            <mxRectangle width="290" height="30" as="alternateBounds" />
          </mxGeometry>
        </mxCell>
        <mxCell id="k6pDDL8mxmZS39vUdsQF-609" value="" style="shape=tableRow;horizontal=0;startSize=0;swimlaneHead=0;swimlaneBody=0;fillColor=none;collapsible=0;dropTarget=0;points=[[0,0.5],[1,0.5]];portConstraint=eastwest;strokeColor=inherit;top=0;left=0;right=0;bottom=0;fontSize=18;" parent="k6pDDL8mxmZS39vUdsQF-596" vertex="1">
          <mxGeometry y="150" width="320" height="30" as="geometry" />
        </mxCell>
        <mxCell id="k6pDDL8mxmZS39vUdsQF-610" value="" style="shape=partialRectangle;overflow=hidden;connectable=0;fillColor=none;strokeColor=inherit;top=0;left=0;bottom=0;right=0;fontSize=18;" parent="k6pDDL8mxmZS39vUdsQF-609" vertex="1">
          <mxGeometry width="30" height="30" as="geometry">
            <mxRectangle width="30" height="30" as="alternateBounds" />
          </mxGeometry>
        </mxCell>
        <mxCell id="k6pDDL8mxmZS39vUdsQF-611" value="TransactionType " style="shape=partialRectangle;overflow=hidden;connectable=0;fillColor=none;align=left;strokeColor=inherit;top=0;left=0;bottom=0;right=0;spacingLeft=6;fontSize=18;" parent="k6pDDL8mxmZS39vUdsQF-609" vertex="1">
          <mxGeometry x="30" width="290" height="30" as="geometry">
            <mxRectangle width="290" height="30" as="alternateBounds" />
          </mxGeometry>
        </mxCell>
        <mxCell id="k6pDDL8mxmZS39vUdsQF-612" value="" style="shape=tableRow;horizontal=0;startSize=0;swimlaneHead=0;swimlaneBody=0;fillColor=none;collapsible=0;dropTarget=0;points=[[0,0.5],[1,0.5]];portConstraint=eastwest;strokeColor=inherit;top=0;left=0;right=0;bottom=0;fontSize=18;" parent="k6pDDL8mxmZS39vUdsQF-596" vertex="1">
          <mxGeometry y="180" width="320" height="20" as="geometry" />
        </mxCell>
        <mxCell id="k6pDDL8mxmZS39vUdsQF-613" value="" style="shape=partialRectangle;overflow=hidden;connectable=0;fillColor=none;strokeColor=inherit;top=0;left=0;bottom=0;right=0;fontSize=18;" parent="k6pDDL8mxmZS39vUdsQF-612" vertex="1">
          <mxGeometry width="30" height="20" as="geometry">
            <mxRectangle width="30" height="20" as="alternateBounds" />
          </mxGeometry>
        </mxCell>
        <mxCell id="k6pDDL8mxmZS39vUdsQF-614" value="TransactionDate " style="shape=partialRectangle;overflow=hidden;connectable=0;fillColor=none;align=left;strokeColor=inherit;top=0;left=0;bottom=0;right=0;spacingLeft=6;fontSize=18;" parent="k6pDDL8mxmZS39vUdsQF-612" vertex="1">
          <mxGeometry x="30" width="290" height="20" as="geometry">
            <mxRectangle width="290" height="20" as="alternateBounds" />
          </mxGeometry>
        </mxCell>
        <mxCell id="k6pDDL8mxmZS39vUdsQF-621" value="Suppliers" style="shape=table;startSize=30;container=1;collapsible=1;childLayout=tableLayout;fixedRows=1;rowLines=0;fontStyle=1;align=center;resizeLast=1;fontSize=18;" parent="1" vertex="1">
          <mxGeometry x="70" y="-560" width="240" height="150" as="geometry" />
        </mxCell>
        <mxCell id="k6pDDL8mxmZS39vUdsQF-622" value="" style="shape=tableRow;horizontal=0;startSize=0;swimlaneHead=0;swimlaneBody=0;fillColor=none;collapsible=0;dropTarget=0;points=[[0,0.5],[1,0.5]];portConstraint=eastwest;strokeColor=inherit;top=0;left=0;right=0;bottom=1;fontSize=18;" parent="k6pDDL8mxmZS39vUdsQF-621" vertex="1">
          <mxGeometry y="30" width="240" height="30" as="geometry" />
        </mxCell>
        <mxCell id="k6pDDL8mxmZS39vUdsQF-623" value="PK" style="shape=partialRectangle;overflow=hidden;connectable=0;fillColor=none;strokeColor=inherit;top=0;left=0;bottom=0;right=0;fontStyle=1;fontSize=18;" parent="k6pDDL8mxmZS39vUdsQF-622" vertex="1">
          <mxGeometry width="30" height="30" as="geometry">
            <mxRectangle width="30" height="30" as="alternateBounds" />
          </mxGeometry>
        </mxCell>
        <mxCell id="k6pDDL8mxmZS39vUdsQF-624" value="SupplierID INT " style="shape=partialRectangle;overflow=hidden;connectable=0;fillColor=none;align=left;strokeColor=inherit;top=0;left=0;bottom=0;right=0;spacingLeft=6;fontStyle=5;fontSize=18;" parent="k6pDDL8mxmZS39vUdsQF-622" vertex="1">
          <mxGeometry x="30" width="210" height="30" as="geometry">
            <mxRectangle width="210" height="30" as="alternateBounds" />
          </mxGeometry>
        </mxCell>
        <mxCell id="k6pDDL8mxmZS39vUdsQF-625" value="" style="shape=tableRow;horizontal=0;startSize=0;swimlaneHead=0;swimlaneBody=0;fillColor=none;collapsible=0;dropTarget=0;points=[[0,0.5],[1,0.5]];portConstraint=eastwest;strokeColor=inherit;top=0;left=0;right=0;bottom=0;fontSize=18;" parent="k6pDDL8mxmZS39vUdsQF-621" vertex="1">
          <mxGeometry y="60" width="240" height="30" as="geometry" />
        </mxCell>
        <mxCell id="k6pDDL8mxmZS39vUdsQF-626" value="" style="shape=partialRectangle;overflow=hidden;connectable=0;fillColor=none;strokeColor=inherit;top=0;left=0;bottom=0;right=0;fontSize=18;" parent="k6pDDL8mxmZS39vUdsQF-625" vertex="1">
          <mxGeometry width="30" height="30" as="geometry">
            <mxRectangle width="30" height="30" as="alternateBounds" />
          </mxGeometry>
        </mxCell>
        <mxCell id="k6pDDL8mxmZS39vUdsQF-627" value="SupplierName " style="shape=partialRectangle;overflow=hidden;connectable=0;fillColor=none;align=left;strokeColor=inherit;top=0;left=0;bottom=0;right=0;spacingLeft=6;fontSize=18;" parent="k6pDDL8mxmZS39vUdsQF-625" vertex="1">
          <mxGeometry x="30" width="210" height="30" as="geometry">
            <mxRectangle width="210" height="30" as="alternateBounds" />
          </mxGeometry>
        </mxCell>
        <mxCell id="k6pDDL8mxmZS39vUdsQF-628" value="" style="shape=tableRow;horizontal=0;startSize=0;swimlaneHead=0;swimlaneBody=0;fillColor=none;collapsible=0;dropTarget=0;points=[[0,0.5],[1,0.5]];portConstraint=eastwest;strokeColor=inherit;top=0;left=0;right=0;bottom=0;fontSize=18;" parent="k6pDDL8mxmZS39vUdsQF-621" vertex="1">
          <mxGeometry y="90" width="240" height="30" as="geometry" />
        </mxCell>
        <mxCell id="k6pDDL8mxmZS39vUdsQF-629" value="" style="shape=partialRectangle;overflow=hidden;connectable=0;fillColor=none;strokeColor=inherit;top=0;left=0;bottom=0;right=0;fontSize=18;" parent="k6pDDL8mxmZS39vUdsQF-628" vertex="1">
          <mxGeometry width="30" height="30" as="geometry">
            <mxRectangle width="30" height="30" as="alternateBounds" />
          </mxGeometry>
        </mxCell>
        <mxCell id="k6pDDL8mxmZS39vUdsQF-630" value="ContactInfo" style="shape=partialRectangle;overflow=hidden;connectable=0;fillColor=none;align=left;strokeColor=inherit;top=0;left=0;bottom=0;right=0;spacingLeft=6;fontSize=18;" parent="k6pDDL8mxmZS39vUdsQF-628" vertex="1">
          <mxGeometry x="30" width="210" height="30" as="geometry">
            <mxRectangle width="210" height="30" as="alternateBounds" />
          </mxGeometry>
        </mxCell>
        <mxCell id="k6pDDL8mxmZS39vUdsQF-631" value="" style="shape=tableRow;horizontal=0;startSize=0;swimlaneHead=0;swimlaneBody=0;fillColor=none;collapsible=0;dropTarget=0;points=[[0,0.5],[1,0.5]];portConstraint=eastwest;strokeColor=inherit;top=0;left=0;right=0;bottom=0;fontSize=18;" parent="k6pDDL8mxmZS39vUdsQF-621" vertex="1">
          <mxGeometry y="120" width="240" height="30" as="geometry" />
        </mxCell>
        <mxCell id="k6pDDL8mxmZS39vUdsQF-632" value="" style="shape=partialRectangle;overflow=hidden;connectable=0;fillColor=none;strokeColor=inherit;top=0;left=0;bottom=0;right=0;fontSize=18;" parent="k6pDDL8mxmZS39vUdsQF-631" vertex="1">
          <mxGeometry width="30" height="30" as="geometry">
            <mxRectangle width="30" height="30" as="alternateBounds" />
          </mxGeometry>
        </mxCell>
        <mxCell id="k6pDDL8mxmZS39vUdsQF-633" value="ProductCategory " style="shape=partialRectangle;overflow=hidden;connectable=0;fillColor=none;align=left;strokeColor=inherit;top=0;left=0;bottom=0;right=0;spacingLeft=6;fontSize=18;" parent="k6pDDL8mxmZS39vUdsQF-631" vertex="1">
          <mxGeometry x="30" width="210" height="30" as="geometry">
            <mxRectangle width="210" height="30" as="alternateBounds" />
          </mxGeometry>
        </mxCell>
        <mxCell id="k6pDDL8mxmZS39vUdsQF-650" value="PaymentDetails" style="shape=table;startSize=30;container=1;collapsible=1;childLayout=tableLayout;fixedRows=1;rowLines=0;fontStyle=1;align=center;resizeLast=1;fontSize=18;" parent="1" vertex="1">
          <mxGeometry x="-755" y="810" width="320" height="180" as="geometry" />
        </mxCell>
        <mxCell id="k6pDDL8mxmZS39vUdsQF-651" value="" style="shape=tableRow;horizontal=0;startSize=0;swimlaneHead=0;swimlaneBody=0;fillColor=none;collapsible=0;dropTarget=0;points=[[0,0.5],[1,0.5]];portConstraint=eastwest;strokeColor=inherit;top=0;left=0;right=0;bottom=1;fontSize=18;" parent="k6pDDL8mxmZS39vUdsQF-650" vertex="1">
          <mxGeometry y="30" width="320" height="30" as="geometry" />
        </mxCell>
        <mxCell id="k6pDDL8mxmZS39vUdsQF-652" value="PK" style="shape=partialRectangle;overflow=hidden;connectable=0;fillColor=none;strokeColor=inherit;top=0;left=0;bottom=0;right=0;fontStyle=1;fontSize=18;" parent="k6pDDL8mxmZS39vUdsQF-651" vertex="1">
          <mxGeometry width="30" height="30" as="geometry">
            <mxRectangle width="30" height="30" as="alternateBounds" />
          </mxGeometry>
        </mxCell>
        <mxCell id="k6pDDL8mxmZS39vUdsQF-653" value="PaymentID" style="shape=partialRectangle;overflow=hidden;connectable=0;fillColor=none;align=left;strokeColor=inherit;top=0;left=0;bottom=0;right=0;spacingLeft=6;fontStyle=5;fontSize=18;" parent="k6pDDL8mxmZS39vUdsQF-651" vertex="1">
          <mxGeometry x="30" width="290" height="30" as="geometry">
            <mxRectangle width="290" height="30" as="alternateBounds" />
          </mxGeometry>
        </mxCell>
        <mxCell id="k6pDDL8mxmZS39vUdsQF-654" value="" style="shape=tableRow;horizontal=0;startSize=0;swimlaneHead=0;swimlaneBody=0;fillColor=none;collapsible=0;dropTarget=0;points=[[0,0.5],[1,0.5]];portConstraint=eastwest;strokeColor=inherit;top=0;left=0;right=0;bottom=1;fontSize=18;" parent="k6pDDL8mxmZS39vUdsQF-650" vertex="1">
          <mxGeometry y="60" width="320" height="30" as="geometry" />
        </mxCell>
        <mxCell id="k6pDDL8mxmZS39vUdsQF-655" value="" style="shape=partialRectangle;overflow=hidden;connectable=0;fillColor=none;strokeColor=inherit;top=0;left=0;bottom=0;right=0;fontStyle=1;fontSize=18;" parent="k6pDDL8mxmZS39vUdsQF-654" vertex="1">
          <mxGeometry width="30" height="30" as="geometry">
            <mxRectangle width="30" height="30" as="alternateBounds" />
          </mxGeometry>
        </mxCell>
        <mxCell id="k6pDDL8mxmZS39vUdsQF-656" value="OrderID" style="shape=partialRectangle;overflow=hidden;connectable=0;fillColor=none;align=left;strokeColor=inherit;top=0;left=0;bottom=0;right=0;spacingLeft=6;fontStyle=1;fontSize=18;" parent="k6pDDL8mxmZS39vUdsQF-654" vertex="1">
          <mxGeometry x="30" width="290" height="30" as="geometry">
            <mxRectangle width="290" height="30" as="alternateBounds" />
          </mxGeometry>
        </mxCell>
        <mxCell id="k6pDDL8mxmZS39vUdsQF-657" value="" style="shape=tableRow;horizontal=0;startSize=0;swimlaneHead=0;swimlaneBody=0;fillColor=none;collapsible=0;dropTarget=0;points=[[0,0.5],[1,0.5]];portConstraint=eastwest;strokeColor=inherit;top=0;left=0;right=0;bottom=0;fontSize=18;" parent="k6pDDL8mxmZS39vUdsQF-650" vertex="1">
          <mxGeometry y="90" width="320" height="30" as="geometry" />
        </mxCell>
        <mxCell id="k6pDDL8mxmZS39vUdsQF-658" value="" style="shape=partialRectangle;overflow=hidden;connectable=0;fillColor=none;strokeColor=inherit;top=0;left=0;bottom=0;right=0;fontSize=18;" parent="k6pDDL8mxmZS39vUdsQF-657" vertex="1">
          <mxGeometry width="30" height="30" as="geometry">
            <mxRectangle width="30" height="30" as="alternateBounds" />
          </mxGeometry>
        </mxCell>
        <mxCell id="k6pDDL8mxmZS39vUdsQF-659" value="PaymentType " style="shape=partialRectangle;overflow=hidden;connectable=0;fillColor=none;align=left;strokeColor=inherit;top=0;left=0;bottom=0;right=0;spacingLeft=6;fontSize=18;" parent="k6pDDL8mxmZS39vUdsQF-657" vertex="1">
          <mxGeometry x="30" width="290" height="30" as="geometry">
            <mxRectangle width="290" height="30" as="alternateBounds" />
          </mxGeometry>
        </mxCell>
        <mxCell id="k6pDDL8mxmZS39vUdsQF-660" value="" style="shape=tableRow;horizontal=0;startSize=0;swimlaneHead=0;swimlaneBody=0;fillColor=none;collapsible=0;dropTarget=0;points=[[0,0.5],[1,0.5]];portConstraint=eastwest;strokeColor=inherit;top=0;left=0;right=0;bottom=0;fontSize=18;" parent="k6pDDL8mxmZS39vUdsQF-650" vertex="1">
          <mxGeometry y="120" width="320" height="30" as="geometry" />
        </mxCell>
        <mxCell id="k6pDDL8mxmZS39vUdsQF-661" value="" style="shape=partialRectangle;overflow=hidden;connectable=0;fillColor=none;strokeColor=inherit;top=0;left=0;bottom=0;right=0;fontSize=18;" parent="k6pDDL8mxmZS39vUdsQF-660" vertex="1">
          <mxGeometry width="30" height="30" as="geometry">
            <mxRectangle width="30" height="30" as="alternateBounds" />
          </mxGeometry>
        </mxCell>
        <mxCell id="k6pDDL8mxmZS39vUdsQF-662" value="Amount" style="shape=partialRectangle;overflow=hidden;connectable=0;fillColor=none;align=left;strokeColor=inherit;top=0;left=0;bottom=0;right=0;spacingLeft=6;fontSize=18;" parent="k6pDDL8mxmZS39vUdsQF-660" vertex="1">
          <mxGeometry x="30" width="290" height="30" as="geometry">
            <mxRectangle width="290" height="30" as="alternateBounds" />
          </mxGeometry>
        </mxCell>
        <mxCell id="k6pDDL8mxmZS39vUdsQF-663" value="" style="shape=tableRow;horizontal=0;startSize=0;swimlaneHead=0;swimlaneBody=0;fillColor=none;collapsible=0;dropTarget=0;points=[[0,0.5],[1,0.5]];portConstraint=eastwest;strokeColor=inherit;top=0;left=0;right=0;bottom=0;fontSize=18;" parent="k6pDDL8mxmZS39vUdsQF-650" vertex="1">
          <mxGeometry y="150" width="320" height="30" as="geometry" />
        </mxCell>
        <mxCell id="k6pDDL8mxmZS39vUdsQF-664" value="" style="shape=partialRectangle;overflow=hidden;connectable=0;fillColor=none;strokeColor=inherit;top=0;left=0;bottom=0;right=0;fontSize=18;" parent="k6pDDL8mxmZS39vUdsQF-663" vertex="1">
          <mxGeometry width="30" height="30" as="geometry">
            <mxRectangle width="30" height="30" as="alternateBounds" />
          </mxGeometry>
        </mxCell>
        <mxCell id="k6pDDL8mxmZS39vUdsQF-665" value="PaymentDate " style="shape=partialRectangle;overflow=hidden;connectable=0;fillColor=none;align=left;strokeColor=inherit;top=0;left=0;bottom=0;right=0;spacingLeft=6;fontSize=18;" parent="k6pDDL8mxmZS39vUdsQF-663" vertex="1">
          <mxGeometry x="30" width="290" height="30" as="geometry">
            <mxRectangle width="290" height="30" as="alternateBounds" />
          </mxGeometry>
        </mxCell>
        <mxCell id="k6pDDL8mxmZS39vUdsQF-669" value="ProductReviews" style="shape=table;startSize=30;container=1;collapsible=1;childLayout=tableLayout;fixedRows=1;rowLines=0;fontStyle=1;align=center;resizeLast=1;fontSize=18;" parent="1" vertex="1">
          <mxGeometry x="380" y="490" width="320" height="210" as="geometry" />
        </mxCell>
        <mxCell id="k6pDDL8mxmZS39vUdsQF-670" value="" style="shape=tableRow;horizontal=0;startSize=0;swimlaneHead=0;swimlaneBody=0;fillColor=none;collapsible=0;dropTarget=0;points=[[0,0.5],[1,0.5]];portConstraint=eastwest;strokeColor=inherit;top=0;left=0;right=0;bottom=1;fontSize=18;" parent="k6pDDL8mxmZS39vUdsQF-669" vertex="1">
          <mxGeometry y="30" width="320" height="30" as="geometry" />
        </mxCell>
        <mxCell id="k6pDDL8mxmZS39vUdsQF-671" value="PK" style="shape=partialRectangle;overflow=hidden;connectable=0;fillColor=none;strokeColor=inherit;top=0;left=0;bottom=0;right=0;fontStyle=1;fontSize=18;" parent="k6pDDL8mxmZS39vUdsQF-670" vertex="1">
          <mxGeometry width="30" height="30" as="geometry">
            <mxRectangle width="30" height="30" as="alternateBounds" />
          </mxGeometry>
        </mxCell>
        <mxCell id="k6pDDL8mxmZS39vUdsQF-672" value="ReviewID" style="shape=partialRectangle;overflow=hidden;connectable=0;fillColor=none;align=left;strokeColor=inherit;top=0;left=0;bottom=0;right=0;spacingLeft=6;fontStyle=5;fontSize=18;" parent="k6pDDL8mxmZS39vUdsQF-670" vertex="1">
          <mxGeometry x="30" width="290" height="30" as="geometry">
            <mxRectangle width="290" height="30" as="alternateBounds" />
          </mxGeometry>
        </mxCell>
        <mxCell id="k6pDDL8mxmZS39vUdsQF-673" value="" style="shape=tableRow;horizontal=0;startSize=0;swimlaneHead=0;swimlaneBody=0;fillColor=none;collapsible=0;dropTarget=0;points=[[0,0.5],[1,0.5]];portConstraint=eastwest;strokeColor=inherit;top=0;left=0;right=0;bottom=1;fontSize=18;" parent="k6pDDL8mxmZS39vUdsQF-669" vertex="1">
          <mxGeometry y="60" width="320" height="30" as="geometry" />
        </mxCell>
        <mxCell id="k6pDDL8mxmZS39vUdsQF-674" value="" style="shape=partialRectangle;overflow=hidden;connectable=0;fillColor=none;strokeColor=inherit;top=0;left=0;bottom=0;right=0;fontStyle=1;fontSize=18;" parent="k6pDDL8mxmZS39vUdsQF-673" vertex="1">
          <mxGeometry width="30" height="30" as="geometry">
            <mxRectangle width="30" height="30" as="alternateBounds" />
          </mxGeometry>
        </mxCell>
        <mxCell id="k6pDDL8mxmZS39vUdsQF-675" value="ProductID" style="shape=partialRectangle;overflow=hidden;connectable=0;fillColor=none;align=left;strokeColor=inherit;top=0;left=0;bottom=0;right=0;spacingLeft=6;fontStyle=1;fontSize=18;" parent="k6pDDL8mxmZS39vUdsQF-673" vertex="1">
          <mxGeometry x="30" width="290" height="30" as="geometry">
            <mxRectangle width="290" height="30" as="alternateBounds" />
          </mxGeometry>
        </mxCell>
        <mxCell id="k6pDDL8mxmZS39vUdsQF-676" value="" style="shape=tableRow;horizontal=0;startSize=0;swimlaneHead=0;swimlaneBody=0;fillColor=none;collapsible=0;dropTarget=0;points=[[0,0.5],[1,0.5]];portConstraint=eastwest;strokeColor=inherit;top=0;left=0;right=0;bottom=1;fontSize=18;" parent="k6pDDL8mxmZS39vUdsQF-669" vertex="1">
          <mxGeometry y="90" width="320" height="30" as="geometry" />
        </mxCell>
        <mxCell id="k6pDDL8mxmZS39vUdsQF-677" value="" style="shape=partialRectangle;overflow=hidden;connectable=0;fillColor=none;strokeColor=inherit;top=0;left=0;bottom=0;right=0;fontStyle=1;fontSize=18;" parent="k6pDDL8mxmZS39vUdsQF-676" vertex="1">
          <mxGeometry width="30" height="30" as="geometry">
            <mxRectangle width="30" height="30" as="alternateBounds" />
          </mxGeometry>
        </mxCell>
        <mxCell id="k6pDDL8mxmZS39vUdsQF-678" value="CustomerID" style="shape=partialRectangle;overflow=hidden;connectable=0;fillColor=none;align=left;strokeColor=inherit;top=0;left=0;bottom=0;right=0;spacingLeft=6;fontStyle=1;fontSize=18;" parent="k6pDDL8mxmZS39vUdsQF-676" vertex="1">
          <mxGeometry x="30" width="290" height="30" as="geometry">
            <mxRectangle width="290" height="30" as="alternateBounds" />
          </mxGeometry>
        </mxCell>
        <mxCell id="k6pDDL8mxmZS39vUdsQF-679" value="" style="shape=tableRow;horizontal=0;startSize=0;swimlaneHead=0;swimlaneBody=0;fillColor=none;collapsible=0;dropTarget=0;points=[[0,0.5],[1,0.5]];portConstraint=eastwest;strokeColor=inherit;top=0;left=0;right=0;bottom=0;fontSize=18;" parent="k6pDDL8mxmZS39vUdsQF-669" vertex="1">
          <mxGeometry y="120" width="320" height="30" as="geometry" />
        </mxCell>
        <mxCell id="k6pDDL8mxmZS39vUdsQF-680" value="" style="shape=partialRectangle;overflow=hidden;connectable=0;fillColor=none;strokeColor=inherit;top=0;left=0;bottom=0;right=0;fontSize=18;" parent="k6pDDL8mxmZS39vUdsQF-679" vertex="1">
          <mxGeometry width="30" height="30" as="geometry">
            <mxRectangle width="30" height="30" as="alternateBounds" />
          </mxGeometry>
        </mxCell>
        <mxCell id="k6pDDL8mxmZS39vUdsQF-681" value="Rating " style="shape=partialRectangle;overflow=hidden;connectable=0;fillColor=none;align=left;strokeColor=inherit;top=0;left=0;bottom=0;right=0;spacingLeft=6;fontSize=18;" parent="k6pDDL8mxmZS39vUdsQF-679" vertex="1">
          <mxGeometry x="30" width="290" height="30" as="geometry">
            <mxRectangle width="290" height="30" as="alternateBounds" />
          </mxGeometry>
        </mxCell>
        <mxCell id="k6pDDL8mxmZS39vUdsQF-682" value="" style="shape=tableRow;horizontal=0;startSize=0;swimlaneHead=0;swimlaneBody=0;fillColor=none;collapsible=0;dropTarget=0;points=[[0,0.5],[1,0.5]];portConstraint=eastwest;strokeColor=inherit;top=0;left=0;right=0;bottom=0;fontSize=18;" parent="k6pDDL8mxmZS39vUdsQF-669" vertex="1">
          <mxGeometry y="150" width="320" height="30" as="geometry" />
        </mxCell>
        <mxCell id="k6pDDL8mxmZS39vUdsQF-683" value="" style="shape=partialRectangle;overflow=hidden;connectable=0;fillColor=none;strokeColor=inherit;top=0;left=0;bottom=0;right=0;fontSize=18;" parent="k6pDDL8mxmZS39vUdsQF-682" vertex="1">
          <mxGeometry width="30" height="30" as="geometry">
            <mxRectangle width="30" height="30" as="alternateBounds" />
          </mxGeometry>
        </mxCell>
        <mxCell id="k6pDDL8mxmZS39vUdsQF-684" value="Comment " style="shape=partialRectangle;overflow=hidden;connectable=0;fillColor=none;align=left;strokeColor=inherit;top=0;left=0;bottom=0;right=0;spacingLeft=6;fontSize=18;" parent="k6pDDL8mxmZS39vUdsQF-682" vertex="1">
          <mxGeometry x="30" width="290" height="30" as="geometry">
            <mxRectangle width="290" height="30" as="alternateBounds" />
          </mxGeometry>
        </mxCell>
        <mxCell id="k6pDDL8mxmZS39vUdsQF-685" value="" style="shape=tableRow;horizontal=0;startSize=0;swimlaneHead=0;swimlaneBody=0;fillColor=none;collapsible=0;dropTarget=0;points=[[0,0.5],[1,0.5]];portConstraint=eastwest;strokeColor=inherit;top=0;left=0;right=0;bottom=0;fontSize=18;" parent="k6pDDL8mxmZS39vUdsQF-669" vertex="1">
          <mxGeometry y="180" width="320" height="30" as="geometry" />
        </mxCell>
        <mxCell id="k6pDDL8mxmZS39vUdsQF-686" value="" style="shape=partialRectangle;overflow=hidden;connectable=0;fillColor=none;strokeColor=inherit;top=0;left=0;bottom=0;right=0;fontSize=18;" parent="k6pDDL8mxmZS39vUdsQF-685" vertex="1">
          <mxGeometry width="30" height="30" as="geometry">
            <mxRectangle width="30" height="30" as="alternateBounds" />
          </mxGeometry>
        </mxCell>
        <mxCell id="k6pDDL8mxmZS39vUdsQF-687" value="ReviewDate " style="shape=partialRectangle;overflow=hidden;connectable=0;fillColor=none;align=left;strokeColor=inherit;top=0;left=0;bottom=0;right=0;spacingLeft=6;fontSize=18;" parent="k6pDDL8mxmZS39vUdsQF-685" vertex="1">
          <mxGeometry x="30" width="290" height="30" as="geometry">
            <mxRectangle width="290" height="30" as="alternateBounds" />
          </mxGeometry>
        </mxCell>
        <mxCell id="k6pDDL8mxmZS39vUdsQF-694" value="SupplierContracts" style="shape=table;startSize=30;container=1;collapsible=1;childLayout=tableLayout;fixedRows=1;rowLines=0;fontStyle=1;align=center;resizeLast=1;fontSize=18;" parent="1" vertex="1">
          <mxGeometry x="490" y="-400" width="310" height="180" as="geometry" />
        </mxCell>
        <mxCell id="k6pDDL8mxmZS39vUdsQF-695" value="" style="shape=tableRow;horizontal=0;startSize=0;swimlaneHead=0;swimlaneBody=0;fillColor=none;collapsible=0;dropTarget=0;points=[[0,0.5],[1,0.5]];portConstraint=eastwest;strokeColor=inherit;top=0;left=0;right=0;bottom=1;fontSize=18;" parent="k6pDDL8mxmZS39vUdsQF-694" vertex="1">
          <mxGeometry y="30" width="310" height="30" as="geometry" />
        </mxCell>
        <mxCell id="k6pDDL8mxmZS39vUdsQF-696" value="PK" style="shape=partialRectangle;overflow=hidden;connectable=0;fillColor=none;strokeColor=inherit;top=0;left=0;bottom=0;right=0;fontStyle=1;fontSize=18;" parent="k6pDDL8mxmZS39vUdsQF-695" vertex="1">
          <mxGeometry width="30" height="30" as="geometry">
            <mxRectangle width="30" height="30" as="alternateBounds" />
          </mxGeometry>
        </mxCell>
        <mxCell id="k6pDDL8mxmZS39vUdsQF-697" value="ContractID " style="shape=partialRectangle;overflow=hidden;connectable=0;fillColor=none;align=left;strokeColor=inherit;top=0;left=0;bottom=0;right=0;spacingLeft=6;fontStyle=5;fontSize=18;" parent="k6pDDL8mxmZS39vUdsQF-695" vertex="1">
          <mxGeometry x="30" width="280" height="30" as="geometry">
            <mxRectangle width="280" height="30" as="alternateBounds" />
          </mxGeometry>
        </mxCell>
        <mxCell id="k6pDDL8mxmZS39vUdsQF-698" value="" style="shape=tableRow;horizontal=0;startSize=0;swimlaneHead=0;swimlaneBody=0;fillColor=none;collapsible=0;dropTarget=0;points=[[0,0.5],[1,0.5]];portConstraint=eastwest;strokeColor=inherit;top=0;left=0;right=0;bottom=1;fontSize=18;" parent="k6pDDL8mxmZS39vUdsQF-694" vertex="1">
          <mxGeometry y="60" width="310" height="30" as="geometry" />
        </mxCell>
        <mxCell id="k6pDDL8mxmZS39vUdsQF-699" value="" style="shape=partialRectangle;overflow=hidden;connectable=0;fillColor=none;strokeColor=inherit;top=0;left=0;bottom=0;right=0;fontStyle=1;fontSize=18;" parent="k6pDDL8mxmZS39vUdsQF-698" vertex="1">
          <mxGeometry width="30" height="30" as="geometry">
            <mxRectangle width="30" height="30" as="alternateBounds" />
          </mxGeometry>
        </mxCell>
        <mxCell id="k6pDDL8mxmZS39vUdsQF-700" value="SupplierID" style="shape=partialRectangle;overflow=hidden;connectable=0;fillColor=none;align=left;strokeColor=inherit;top=0;left=0;bottom=0;right=0;spacingLeft=6;fontStyle=1;fontSize=18;" parent="k6pDDL8mxmZS39vUdsQF-698" vertex="1">
          <mxGeometry x="30" width="280" height="30" as="geometry">
            <mxRectangle width="280" height="30" as="alternateBounds" />
          </mxGeometry>
        </mxCell>
        <mxCell id="k6pDDL8mxmZS39vUdsQF-701" value="" style="shape=tableRow;horizontal=0;startSize=0;swimlaneHead=0;swimlaneBody=0;fillColor=none;collapsible=0;dropTarget=0;points=[[0,0.5],[1,0.5]];portConstraint=eastwest;strokeColor=inherit;top=0;left=0;right=0;bottom=0;fontSize=18;" parent="k6pDDL8mxmZS39vUdsQF-694" vertex="1">
          <mxGeometry y="90" width="310" height="30" as="geometry" />
        </mxCell>
        <mxCell id="k6pDDL8mxmZS39vUdsQF-702" value="" style="shape=partialRectangle;overflow=hidden;connectable=0;fillColor=none;strokeColor=inherit;top=0;left=0;bottom=0;right=0;fontSize=18;" parent="k6pDDL8mxmZS39vUdsQF-701" vertex="1">
          <mxGeometry width="30" height="30" as="geometry">
            <mxRectangle width="30" height="30" as="alternateBounds" />
          </mxGeometry>
        </mxCell>
        <mxCell id="k6pDDL8mxmZS39vUdsQF-703" value="StartDate " style="shape=partialRectangle;overflow=hidden;connectable=0;fillColor=none;align=left;strokeColor=inherit;top=0;left=0;bottom=0;right=0;spacingLeft=6;fontSize=18;" parent="k6pDDL8mxmZS39vUdsQF-701" vertex="1">
          <mxGeometry x="30" width="280" height="30" as="geometry">
            <mxRectangle width="280" height="30" as="alternateBounds" />
          </mxGeometry>
        </mxCell>
        <mxCell id="k6pDDL8mxmZS39vUdsQF-704" value="" style="shape=tableRow;horizontal=0;startSize=0;swimlaneHead=0;swimlaneBody=0;fillColor=none;collapsible=0;dropTarget=0;points=[[0,0.5],[1,0.5]];portConstraint=eastwest;strokeColor=inherit;top=0;left=0;right=0;bottom=0;fontSize=18;" parent="k6pDDL8mxmZS39vUdsQF-694" vertex="1">
          <mxGeometry y="120" width="310" height="30" as="geometry" />
        </mxCell>
        <mxCell id="k6pDDL8mxmZS39vUdsQF-705" value="" style="shape=partialRectangle;overflow=hidden;connectable=0;fillColor=none;strokeColor=inherit;top=0;left=0;bottom=0;right=0;fontSize=18;" parent="k6pDDL8mxmZS39vUdsQF-704" vertex="1">
          <mxGeometry width="30" height="30" as="geometry">
            <mxRectangle width="30" height="30" as="alternateBounds" />
          </mxGeometry>
        </mxCell>
        <mxCell id="k6pDDL8mxmZS39vUdsQF-706" value="EndDate " style="shape=partialRectangle;overflow=hidden;connectable=0;fillColor=none;align=left;strokeColor=inherit;top=0;left=0;bottom=0;right=0;spacingLeft=6;fontSize=18;" parent="k6pDDL8mxmZS39vUdsQF-704" vertex="1">
          <mxGeometry x="30" width="280" height="30" as="geometry">
            <mxRectangle width="280" height="30" as="alternateBounds" />
          </mxGeometry>
        </mxCell>
        <mxCell id="k6pDDL8mxmZS39vUdsQF-707" value="" style="shape=tableRow;horizontal=0;startSize=0;swimlaneHead=0;swimlaneBody=0;fillColor=none;collapsible=0;dropTarget=0;points=[[0,0.5],[1,0.5]];portConstraint=eastwest;strokeColor=inherit;top=0;left=0;right=0;bottom=0;fontSize=18;" parent="k6pDDL8mxmZS39vUdsQF-694" vertex="1">
          <mxGeometry y="150" width="310" height="30" as="geometry" />
        </mxCell>
        <mxCell id="k6pDDL8mxmZS39vUdsQF-708" value="" style="shape=partialRectangle;overflow=hidden;connectable=0;fillColor=none;strokeColor=inherit;top=0;left=0;bottom=0;right=0;fontSize=18;" parent="k6pDDL8mxmZS39vUdsQF-707" vertex="1">
          <mxGeometry width="30" height="30" as="geometry">
            <mxRectangle width="30" height="30" as="alternateBounds" />
          </mxGeometry>
        </mxCell>
        <mxCell id="k6pDDL8mxmZS39vUdsQF-709" value="Terms " style="shape=partialRectangle;overflow=hidden;connectable=0;fillColor=none;align=left;strokeColor=inherit;top=0;left=0;bottom=0;right=0;spacingLeft=6;fontSize=18;" parent="k6pDDL8mxmZS39vUdsQF-707" vertex="1">
          <mxGeometry x="30" width="280" height="30" as="geometry">
            <mxRectangle width="280" height="30" as="alternateBounds" />
          </mxGeometry>
        </mxCell>
        <mxCell id="k6pDDL8mxmZS39vUdsQF-738" value="" style="edgeStyle=orthogonalEdgeStyle;fontSize=18;html=1;endArrow=ERmany;startArrow=ERmany;rounded=0;exitX=0.99;exitY=-0.074;exitDx=0;exitDy=0;endSize=21;startSize=21;exitPerimeter=0;" parent="1" source="k6pDDL8mxmZS39vUdsQF-461" edge="1">
          <mxGeometry width="100" height="100" relative="1" as="geometry">
            <mxPoint x="200" y="-70" as="sourcePoint" />
            <mxPoint x="653" y="-220" as="targetPoint" />
            <Array as="points">
              <mxPoint x="653" y="-122" />
            </Array>
          </mxGeometry>
        </mxCell>
        <mxCell id="k6pDDL8mxmZS39vUdsQF-740" value="" style="edgeStyle=orthogonalEdgeStyle;fontSize=18;html=1;endArrow=ERzeroToMany;startArrow=ERmandOne;rounded=0;exitX=1;exitY=0.5;exitDx=0;exitDy=0;endSize=18;startSize=15;" parent="1" source="k6pDDL8mxmZS39vUdsQF-625" target="k6pDDL8mxmZS39vUdsQF-694" edge="1">
          <mxGeometry width="100" height="100" relative="1" as="geometry">
            <mxPoint x="500" y="-435" as="sourcePoint" />
            <mxPoint x="610" y="-485" as="targetPoint" />
          </mxGeometry>
        </mxCell>
        <mxCell id="k6pDDL8mxmZS39vUdsQF-741" value="" style="fontSize=18;html=1;endArrow=ERzeroToMany;startArrow=ERmandOne;rounded=0;exitX=0.48;exitY=1.08;exitDx=0;exitDy=0;endSize=18;startSize=15;exitPerimeter=0;entryX=0.445;entryY=-0.001;entryDx=0;entryDy=0;entryPerimeter=0;" parent="1" source="k6pDDL8mxmZS39vUdsQF-631" target="k6pDDL8mxmZS39vUdsQF-454" edge="1">
          <mxGeometry width="100" height="100" relative="1" as="geometry">
            <mxPoint x="320" y="-475" as="sourcePoint" />
            <mxPoint x="655" y="-390" as="targetPoint" />
          </mxGeometry>
        </mxCell>
        <mxCell id="k6pDDL8mxmZS39vUdsQF-742" value="" style="fontSize=18;html=1;endArrow=ERzeroToMany;startArrow=ERmandOne;rounded=0;endSize=17;startSize=15;edgeStyle=orthogonalEdgeStyle;" parent="1" source="k6pDDL8mxmZS39vUdsQF-467" target="k6pDDL8mxmZS39vUdsQF-473" edge="1">
          <mxGeometry width="100" height="100" relative="1" as="geometry">
            <mxPoint x="188.5" y="2" as="sourcePoint" />
            <mxPoint x="191.5" y="200" as="targetPoint" />
          </mxGeometry>
        </mxCell>
        <mxCell id="k6pDDL8mxmZS39vUdsQF-743" value="" style="fontSize=18;html=1;endArrow=ERzeroToMany;startArrow=ERmandOne;rounded=0;endSize=17;startSize=15;edgeStyle=orthogonalEdgeStyle;entryX=1;entryY=0.5;entryDx=0;entryDy=0;exitX=0.498;exitY=1.02;exitDx=0;exitDy=0;exitPerimeter=0;" parent="1" source="k6pDDL8mxmZS39vUdsQF-508" target="k6pDDL8mxmZS39vUdsQF-486" edge="1">
          <mxGeometry width="100" height="100" relative="1" as="geometry">
            <mxPoint x="320" y="-35" as="sourcePoint" />
            <mxPoint x="600" y="110" as="targetPoint" />
          </mxGeometry>
        </mxCell>
        <mxCell id="k6pDDL8mxmZS39vUdsQF-745" value="" style="fontSize=18;html=1;endArrow=ERzeroToMany;startArrow=ERmandOne;rounded=0;endSize=17;startSize=15;edgeStyle=orthogonalEdgeStyle;entryX=-0.005;entryY=0.09;entryDx=0;entryDy=0;entryPerimeter=0;" parent="1" target="k6pDDL8mxmZS39vUdsQF-486" edge="1">
          <mxGeometry width="100" height="100" relative="1" as="geometry">
            <mxPoint x="-140" y="20" as="sourcePoint" />
            <mxPoint x="40" y="320" as="targetPoint" />
            <Array as="points">
              <mxPoint x="-140" y="-19" />
              <mxPoint x="-140" y="253" />
            </Array>
          </mxGeometry>
        </mxCell>
        <mxCell id="k6pDDL8mxmZS39vUdsQF-746" value="" style="fontSize=18;html=1;endArrow=ERzeroToMany;startArrow=ERmandOne;rounded=0;endSize=17;startSize=15;exitX=0.475;exitY=1.085;exitDx=0;exitDy=0;exitPerimeter=0;entryX=0.433;entryY=0.01;entryDx=0;entryDy=0;entryPerimeter=0;" parent="1" source="k6pDDL8mxmZS39vUdsQF-593" target="k6pDDL8mxmZS39vUdsQF-511" edge="1">
          <mxGeometry width="100" height="100" relative="1" as="geometry">
            <mxPoint x="-162" y="-9" as="sourcePoint" />
            <mxPoint x="438" y="263" as="targetPoint" />
          </mxGeometry>
        </mxCell>
        <mxCell id="k6pDDL8mxmZS39vUdsQF-747" value="" style="fontSize=18;html=1;endArrow=ERzeroToMany;startArrow=ERmandOne;rounded=0;endSize=20;startSize=15;edgeStyle=orthogonalEdgeStyle;entryX=1.004;entryY=0.095;entryDx=0;entryDy=0;entryPerimeter=0;" parent="1" target="k6pDDL8mxmZS39vUdsQF-518" edge="1">
          <mxGeometry width="100" height="100" relative="1" as="geometry">
            <mxPoint x="-250" y="-20" as="sourcePoint" />
            <mxPoint x="-370" y="269.04" as="targetPoint" />
          </mxGeometry>
        </mxCell>
        <mxCell id="k6pDDL8mxmZS39vUdsQF-748" value="" style="fontSize=18;html=1;endArrow=ERzeroToMany;startArrow=ERmandOne;rounded=0;endSize=20;startSize=15;exitX=0.51;exitY=1.074;exitDx=0;exitDy=0;exitPerimeter=0;entryX=0.46;entryY=0;entryDx=0;entryDy=0;entryPerimeter=0;" parent="1" source="k6pDDL8mxmZS39vUdsQF-451" target="k6pDDL8mxmZS39vUdsQF-596" edge="1">
          <mxGeometry width="100" height="100" relative="1" as="geometry">
            <mxPoint x="-242" y="-9" as="sourcePoint" />
            <mxPoint x="-410" y="180" as="targetPoint" />
          </mxGeometry>
        </mxCell>
        <mxCell id="k6pDDL8mxmZS39vUdsQF-749" value="" style="edgeStyle=orthogonalEdgeStyle;fontSize=18;html=1;endArrow=ERmandOne;startArrow=ERmandOne;rounded=0;exitX=0.5;exitY=0;exitDx=0;exitDy=0;entryX=-0.004;entryY=0.238;entryDx=0;entryDy=0;entryPerimeter=0;endSize=15;startSize=15;" parent="1" source="k6pDDL8mxmZS39vUdsQF-558" target="k6pDDL8mxmZS39vUdsQF-521" edge="1">
          <mxGeometry width="100" height="100" relative="1" as="geometry">
            <mxPoint x="-180" y="570" as="sourcePoint" />
            <mxPoint x="-80" y="470" as="targetPoint" />
          </mxGeometry>
        </mxCell>
        <mxCell id="k6pDDL8mxmZS39vUdsQF-750" value="" style="fontSize=18;html=1;endArrow=ERmandOne;startArrow=ERmandOne;rounded=0;endSize=15;startSize=15;entryX=0.458;entryY=1.056;entryDx=0;entryDy=0;entryPerimeter=0;" parent="1" source="k6pDDL8mxmZS39vUdsQF-650" edge="1" target="k6pDDL8mxmZS39vUdsQF-527">
          <mxGeometry width="100" height="100" relative="1" as="geometry">
            <mxPoint x="-1040" y="540" as="sourcePoint" />
            <mxPoint x="-595" y="430" as="targetPoint" />
          </mxGeometry>
        </mxCell>
        <mxCell id="k6pDDL8mxmZS39vUdsQF-751" value="Has" style="text;html=1;strokeColor=none;fillColor=none;align=center;verticalAlign=middle;whiteSpace=wrap;rounded=0;fontSize=18;" parent="1" vertex="1">
          <mxGeometry x="-660" y="470" width="60" height="30" as="geometry" />
        </mxCell>
        <mxCell id="k6pDDL8mxmZS39vUdsQF-752" value="Pays For" style="text;html=1;strokeColor=none;fillColor=none;align=center;verticalAlign=middle;whiteSpace=wrap;rounded=0;fontSize=18;" parent="1" vertex="1">
          <mxGeometry x="-720" y="700" width="110" height="30" as="geometry" />
        </mxCell>
        <mxCell id="k6pDDL8mxmZS39vUdsQF-753" value="" style="fontSize=18;html=1;endArrow=ERzeroToMany;startArrow=ERmandOne;rounded=0;endSize=20;startSize=15;edgeStyle=orthogonalEdgeStyle;entryX=-0.005;entryY=0.138;entryDx=0;entryDy=0;entryPerimeter=0;" parent="1" target="k6pDDL8mxmZS39vUdsQF-543" edge="1">
          <mxGeometry width="100" height="100" relative="1" as="geometry">
            <mxPoint x="-500" y="410" as="sourcePoint" />
            <mxPoint x="-409" y="273" as="targetPoint" />
            <Array as="points">
              <mxPoint x="-500" y="744" />
            </Array>
          </mxGeometry>
        </mxCell>
        <mxCell id="k6pDDL8mxmZS39vUdsQF-754" value="" style="fontSize=18;html=1;endArrow=ERzeroToMany;startArrow=ERmandOne;rounded=0;endSize=17;startSize=15;edgeStyle=orthogonalEdgeStyle;exitX=1;exitY=-0.212;exitDx=0;exitDy=0;exitPerimeter=0;" parent="1" source="k6pDDL8mxmZS39vUdsQF-448" target="k6pDDL8mxmZS39vUdsQF-669" edge="1">
          <mxGeometry width="100" height="100" relative="1" as="geometry">
            <mxPoint x="-130" y="30" as="sourcePoint" />
            <mxPoint x="438" y="263" as="targetPoint" />
            <Array as="points">
              <mxPoint y="-86" />
              <mxPoint y="160" />
              <mxPoint x="150" y="160" />
              <mxPoint x="150" y="625" />
            </Array>
          </mxGeometry>
        </mxCell>
        <mxCell id="k6pDDL8mxmZS39vUdsQF-755" value="Writes" style="text;html=1;strokeColor=none;fillColor=none;align=center;verticalAlign=middle;whiteSpace=wrap;rounded=0;fontSize=18;" parent="1" vertex="1">
          <mxGeometry x="10" y="110" width="60" height="30" as="geometry" />
        </mxCell>
        <mxCell id="k6pDDL8mxmZS39vUdsQF-756" value="" style="fontSize=18;html=1;endArrow=ERzeroToMany;startArrow=ERmandOne;rounded=0;endSize=17;startSize=15;edgeStyle=orthogonalEdgeStyle;exitX=0.488;exitY=1.169;exitDx=0;exitDy=0;exitPerimeter=0;entryX=0.995;entryY=-0.016;entryDx=0;entryDy=0;entryPerimeter=0;" parent="1" source="k6pDDL8mxmZS39vUdsQF-470" target="k6pDDL8mxmZS39vUdsQF-546" edge="1">
          <mxGeometry width="100" height="100" relative="1" as="geometry">
            <mxPoint x="-130" y="30" as="sourcePoint" />
            <mxPoint x="120" y="800" as="targetPoint" />
            <Array as="points">
              <mxPoint x="197" y="340" />
              <mxPoint x="100" y="340" />
              <mxPoint x="100" y="770" />
            </Array>
          </mxGeometry>
        </mxCell>
        <mxCell id="k6pDDL8mxmZS39vUdsQF-757" value="Bound By" style="text;html=1;strokeColor=none;fillColor=none;align=center;verticalAlign=middle;whiteSpace=wrap;rounded=0;fontSize=18;" parent="1" vertex="1">
          <mxGeometry x="410" y="-520" width="110" height="30" as="geometry" />
        </mxCell>
        <mxCell id="k6pDDL8mxmZS39vUdsQF-758" value="Supplies" style="text;html=1;strokeColor=none;fillColor=none;align=center;verticalAlign=middle;whiteSpace=wrap;rounded=0;fontSize=18;" parent="1" vertex="1">
          <mxGeometry x="470" y="-160" width="60" height="30" as="geometry" />
        </mxCell>
        <mxCell id="k6pDDL8mxmZS39vUdsQF-759" value="Has" style="text;html=1;strokeColor=none;fillColor=none;align=center;verticalAlign=middle;whiteSpace=wrap;rounded=0;fontSize=18;" parent="1" vertex="1">
          <mxGeometry x="520" y="20" width="60" height="30" as="geometry" />
        </mxCell>
        <mxCell id="z96BYMJ1JRVTfkLZvEhI-1" value="Processes" style="text;html=1;align=center;verticalAlign=middle;resizable=0;points=[];autosize=1;strokeColor=none;fillColor=none;fontSize=18;" vertex="1" parent="1">
          <mxGeometry x="-600" y="50" width="110" height="40" as="geometry" />
        </mxCell>
        <mxCell id="z96BYMJ1JRVTfkLZvEhI-2" value="Placed at" style="text;html=1;align=center;verticalAlign=middle;resizable=0;points=[];autosize=1;strokeColor=none;fillColor=none;fontSize=18;" vertex="1" parent="1">
          <mxGeometry x="-350" y="105" width="100" height="40" as="geometry" />
        </mxCell>
        <mxCell id="z96BYMJ1JRVTfkLZvEhI-3" value="Generates" style="text;html=1;align=center;verticalAlign=middle;resizable=0;points=[];autosize=1;strokeColor=none;fillColor=none;fontSize=18;" vertex="1" parent="1">
          <mxGeometry x="-985" y="285" width="110" height="40" as="geometry" />
        </mxCell>
        <mxCell id="z96BYMJ1JRVTfkLZvEhI-4" value="Consist of" style="text;html=1;align=center;verticalAlign=middle;resizable=0;points=[];autosize=1;strokeColor=none;fillColor=none;fontSize=18;" vertex="1" parent="1">
          <mxGeometry x="-490" y="590" width="100" height="40" as="geometry" />
        </mxCell>
        <mxCell id="z96BYMJ1JRVTfkLZvEhI-5" value="Records" style="text;html=1;align=center;verticalAlign=middle;resizable=0;points=[];autosize=1;strokeColor=none;fillColor=none;fontSize=18;" vertex="1" parent="1">
          <mxGeometry x="-220" y="90" width="90" height="40" as="geometry" />
        </mxCell>
        <mxCell id="z96BYMJ1JRVTfkLZvEhI-6" value="Comprises off" style="text;html=1;align=center;verticalAlign=middle;resizable=0;points=[];autosize=1;strokeColor=none;fillColor=none;fontSize=18;" vertex="1" parent="1">
          <mxGeometry x="-40" y="590" width="130" height="40" as="geometry" />
        </mxCell>
        <mxCell id="z96BYMJ1JRVTfkLZvEhI-7" value="Consist off" style="text;html=1;align=center;verticalAlign=middle;resizable=0;points=[];autosize=1;strokeColor=none;fillColor=none;fontSize=18;" vertex="1" parent="1">
          <mxGeometry x="795" y="223" width="110" height="40" as="geometry" />
        </mxCell>
      </root>
    </mxGraphModel>
  </diagram>
</mxfile>
